<svg width="52" height="43" viewBox="0 0 52 43" fill="none" xmlns="http://www.w3.org/2000/svg">
<path d="M0.66658 39.9857V33.9925C0.66658 32.6008 1.02572 31.3663 1.74401 30.2889C2.46229 29.2114 3.40504 28.3585 4.57225 27.73C6.86178 26.5628 9.28598 25.62 11.8449 24.9017C14.4038 24.1835 17.4116 23.8243 20.8683 23.8243C22.2151 23.8243 23.4613 23.88 24.607 23.9913C25.7508 24.1045 26.839 24.2732 27.8716 24.4977L24.3026 28.0667C23.8088 27.9769 23.2701 27.9203 22.6865 27.897C22.1029 27.8754 21.4968 27.8647 20.8683 27.8647C17.6809 27.8647 14.8868 28.2238 12.4859 28.9421C10.0833 29.6604 8.07388 30.4684 6.45774 31.3663C5.82924 31.6805 5.38032 32.0621 5.11096 32.5111C4.8416 32.96 4.70693 33.4538 4.70693 33.9925V35.9454H21.003L25.0433 39.9857H0.66658ZM35.5482 42.0059L27.1982 33.6558L30.0264 30.8276L35.5482 36.3494L49.1507 22.7469L51.979 25.5751L35.5482 42.0059ZM20.8683 19.5146C18.2645 19.5146 16.0423 18.5826 14.2017 16.7187C12.3611 14.8565 11.4408 12.646 11.4408 10.0871C11.4408 7.48336 12.3611 5.26117 14.2017 3.42057C16.0423 1.57997 18.2645 0.659668 20.8683 0.659668C23.4721 0.659668 25.6943 1.57997 27.5349 3.42057C29.3755 5.26117 30.2958 7.48336 30.2958 10.0871C30.2958 12.646 29.3755 14.8565 27.5349 16.7187C25.6943 18.5826 23.4721 19.5146 20.8683 19.5146ZM20.8683 15.4743C22.3498 15.4743 23.6184 14.9463 24.6743 13.8905C25.7284 12.8364 26.2554 11.5686 26.2554 10.0871C26.2554 8.60568 25.7284 7.33701 24.6743 6.28114C23.6184 5.22706 22.3498 4.70001 20.8683 4.70001C19.3869 4.70001 18.1182 5.22706 17.0623 6.28114C16.0082 7.33701 15.4812 8.60568 15.4812 10.0871C15.4812 11.5686 16.0082 12.8364 17.0623 13.8905C18.1182 14.9463 19.3869 15.4743 20.8683 15.4743Z" fill="#1C1B1F"/>
</svg>
