<svg width="305" height="216" viewBox="0 0 305 216" fill="none" xmlns="http://www.w3.org/2000/svg">
<g clip-path="url(#clip0_689_588)">
<path opacity="0.1" d="M101.4 215.879C116.253 215.879 128.294 213.945 128.294 211.56C128.294 209.175 116.253 207.241 101.4 207.241C86.5468 207.241 74.5059 209.175 74.5059 211.56C74.5059 213.945 86.5468 215.879 101.4 215.879Z" fill="#215FCB"/>
<path opacity="0.1" d="M247.593 216C266.128 216 281.153 214.066 281.153 211.681C281.153 209.296 266.128 207.363 247.593 207.363C229.058 207.363 214.033 209.296 214.033 211.681C214.033 214.066 229.058 216 247.593 216Z" fill="#215FCB"/>
<path opacity="0.1" d="M3.82019 93.3276H31.8323V131.5H5.87093C5.80193 131.892 5.73569 132.287 5.66393 132.681H31.8323V163.467C31.7853 163.453 31.7439 163.436 31.6998 163.42C30.9601 163.127 30.2259 162.818 29.4917 162.487L29.0225 162.275C28.2865 161.927 27.5504 161.559 26.8144 161.171C26.5577 161.036 26.301 160.895 26.0471 160.751C21.961 158.463 18.2491 155.563 15.0399 152.153C14.9461 152.062 14.8578 151.965 14.7639 151.877C14.3168 151.391 13.8779 150.9 13.4529 150.398L12.9837 149.846C12.4813 149.23 11.9955 148.598 11.5236 147.958C11.4546 147.864 11.3883 147.771 11.3166 147.682C9.39706 145.021 7.80327 142.14 6.56923 139.1C6.53059 139.009 6.49747 138.91 6.46159 138.824C6.08254 137.849 5.74673 136.865 5.45416 135.871C5.32719 135.455 5.20575 135.044 5.10087 134.61C5.06223 134.483 5.02911 134.359 4.99874 134.235C3.43102 128.117 3.24609 121.762 3.24609 115.451C3.24609 114.714 3.24609 113.974 3.24609 113.243C3.24609 110.691 3.27645 108.122 3.32062 105.555C3.32062 104.89 3.34822 104.228 3.36202 103.56C3.40066 101.866 3.45586 100.171 3.52762 98.4769C3.54418 98.0051 3.56626 97.5359 3.5911 97.0668C3.5911 96.7964 3.6049 96.5259 3.63251 96.2555C3.69875 95.2731 3.75395 94.299 3.82019 93.3276Z" fill="#215FCB"/>
<path opacity="0.1" d="M31.8322 50.825H16.4668C18.9645 46.9164 21.6936 43.1604 24.6394 39.5772C26.922 36.7735 29.3315 34.0415 31.8322 31.4089V50.825Z" fill="#215FCB"/>
<path opacity="0.1" d="M31.8319 52.0063V92.1466H3.9082C3.9082 92.0307 3.92752 91.912 3.9358 91.7961C3.96064 91.4788 3.98548 91.1614 4.01309 90.8468C4.04345 90.4771 4.07657 90.1045 4.11245 89.743C4.14833 89.3815 4.18697 88.94 4.22837 88.5399C4.26977 88.1397 4.30841 87.7341 4.35534 87.3339C4.40226 86.9338 4.44366 86.5337 4.49334 86.1363C4.54302 85.7389 4.58718 85.336 4.63963 84.9387C4.68103 84.6075 4.72519 84.2791 4.76935 83.948C4.83283 83.4816 4.89907 83.0125 4.97083 82.5489C4.97083 82.4799 4.99015 82.4082 5.00119 82.3419C5.50496 78.9482 6.19138 75.584 7.05745 72.2641C7.96403 68.7815 9.12169 65.3692 10.5214 62.0538C12.0089 58.5856 13.7507 55.2319 15.7324 52.0201L31.8319 52.0063Z" fill="#215FCB"/>
<path opacity="0.1" d="M38.5195 93.3248V131.5H98.3498V93.3248H38.5195ZM38.5195 132.679V165.462C38.8618 165.534 39.2013 165.603 39.538 165.661C39.9962 165.749 40.4516 165.829 40.918 165.898C41.0064 165.912 41.0974 165.925 41.1941 165.934C41.3762 165.964 41.5639 165.989 41.7461 166.014C42.207 166.077 42.6652 166.13 43.1261 166.171C43.3442 166.193 43.565 166.212 43.7858 166.229L44.3185 166.27C44.6083 166.292 44.8953 166.309 45.1796 166.317C45.3562 166.317 45.5329 166.334 45.7151 166.339C45.8531 166.339 45.9911 166.339 46.1346 166.339C46.2781 166.339 46.4824 166.339 46.6562 166.339C46.8936 166.339 47.131 166.339 47.3656 166.339H47.683C47.9204 166.339 48.1577 166.339 48.3923 166.317H48.4089C48.5717 166.317 48.7373 166.317 48.903 166.295C48.9489 166.298 48.995 166.298 49.041 166.295C49.179 166.295 49.317 166.295 49.4494 166.276H49.5461L50.4707 166.204C50.7743 166.177 51.0807 166.141 51.3898 166.108L52.0191 166.033C54.5793 165.674 57.111 165.136 59.5955 164.422C65.1764 162.865 70.6358 160.688 76.214 159.093C83.426 157.037 91.3944 156.027 98.3636 158.541V132.679H38.5195ZM98.3498 50.8252V0.00280392C91.7994 -0.0681503 85.2668 0.697843 78.9106 2.28218C63.7605 6.08758 50.1671 14.3414 38.5195 24.8828V50.8224H41.5225V52.0008H38.5195V92.1465H98.3498V52.0035H53.8518V50.8252H98.3498ZM175.199 33.6581C171.451 33.5257 167.724 32.3391 164.354 30.5067C157.91 27.0021 152.762 21.5907 147.01 17.0236C135.059 7.5115 120.237 1.77167 105.032 0.347746V50.8252H190.443L190.655 50.6017L175.199 33.6581ZM182.979 32.2783L191.229 41.3296V29.9051C188.466 30.2473 186.046 31.0614 182.99 32.2673L182.979 32.2783ZM191.229 173.602V132.679H173.65C173.603 132.505 173.556 132.328 173.501 132.152C173.554 132.328 173.598 132.505 173.648 132.679H105.043V162.275C105.694 162.758 106.337 163.265 106.975 163.781C107.662 164.333 108.341 164.915 109.023 165.487L109.71 166.055C110.039 166.331 110.37 166.607 110.704 166.866C111.366 167.404 112.035 167.933 112.711 168.456C113.044 168.732 113.387 168.98 113.726 169.24C119.116 173.36 124.801 177.078 130.737 180.363C132.067 181.099 133.409 181.818 134.764 182.519C135.666 182.979 136.574 183.437 137.485 183.882C138.854 184.55 140.234 185.193 141.625 185.813C154.45 191.569 168.012 195.519 181.922 197.55C185.012 198.006 188.113 198.365 191.227 198.626V173.6H191.503L191.229 173.602ZM105.043 52.0035V92.1465H191.24V52.0035H105.043ZM105.043 93.3248V131.5H191.24V93.3248H105.043ZM197.931 29.8555V42.599L208.46 31.0476C204.972 30.4846 201.462 30.0827 197.931 29.8417V29.8555ZM197.931 93.3386V131.5H281.768V93.3248L197.931 93.3386ZM281.462 176.632L281.757 132.679H197.931V199.065C203.331 199.292 208.739 199.227 214.132 198.872V198.872H214.226C216.802 198.71 219.366 198.474 221.919 198.165H221.977C235.592 196.581 248.906 193.029 261.501 187.621L281.462 176.632ZM297.934 99.611C297.619 98.8687 297.291 98.1319 296.957 97.4034C296.333 96.0236 295.674 94.6825 294.995 93.3414H288.453V131.5H304.992C304.983 120.694 302.248 109.656 297.942 99.5972L297.934 99.611ZM288.453 132.692V170.498C293.112 166.033 297.048 160.925 299.883 155.086C303.291 148.055 304.851 140.441 304.978 132.687L288.453 132.692ZM288.453 82.2149V92.1493H294.382C292.588 88.7294 290.612 85.4086 288.461 82.2011L288.453 82.2149ZM231.595 37.3449C231.159 37.1793 230.723 37.011 230.284 36.8481C225.656 35.1392 220.926 33.7181 216.122 32.5929L200.009 50.2733L199.7 50.6017L199.907 50.828H257.256C249.269 45.3311 240.658 40.8005 231.604 37.3311L231.595 37.3449ZM258.937 52.0173H199.107L197.931 53.0935V92.1465H208.237H208.253H281.779V73.2299C275.128 65.1874 267.451 58.0512 258.945 52.0035L258.937 52.0173Z" fill="#215FCB"/>
<path opacity="0.1" d="M31.8319 72.2529V92.1464H3.9082C3.9082 92.0305 3.92752 91.9119 3.9358 91.796C3.96064 91.4786 3.98548 91.1613 4.01309 90.8467C4.04345 90.4769 4.07657 90.1044 4.11245 89.7429C4.14833 89.3814 4.18697 88.9399 4.22837 88.5397C4.26977 88.1396 4.30841 87.7339 4.35534 87.3338C4.40226 86.9337 4.44366 86.5335 4.49334 86.1362C4.54302 85.7388 4.58718 85.3359 4.63963 84.9385C4.68103 84.6074 4.72519 84.279 4.76935 83.9478C4.83283 83.4815 4.89907 83.0124 4.97083 82.5488C4.97083 82.4798 4.99015 82.408 5.00119 82.3418C5.50496 78.948 6.19138 75.5839 7.05745 72.264L31.8319 72.2529Z" fill="#215FCB"/>
<path opacity="0.1" d="M3.82019 93.3276H31.8323V131.5H5.87093C5.80193 131.892 5.73569 132.287 5.66393 132.681H31.8323V163.467C31.7853 163.453 31.7439 163.436 31.6998 163.42C30.9601 163.127 30.2259 162.818 29.4917 162.487L29.0225 162.275C28.2865 161.927 27.5504 161.559 26.8144 161.171C26.5577 161.036 26.301 160.895 26.0471 160.751C21.961 158.463 18.2491 155.563 15.0399 152.153C14.9461 152.062 14.8578 151.965 14.7639 151.877C14.3168 151.391 13.8779 150.9 13.4529 150.398L12.9837 149.846C12.4813 149.23 11.9955 148.598 11.5236 147.958C11.4546 147.864 11.3883 147.771 11.3166 147.682C9.39706 145.021 7.80327 142.14 6.56923 139.1C6.53059 139.009 6.49747 138.91 6.46159 138.824C6.08254 137.849 5.74673 136.865 5.45416 135.871C5.32719 135.455 5.20575 135.044 5.10087 134.61C5.06223 134.483 5.02911 134.359 4.99874 134.235C3.43102 128.117 3.24609 121.762 3.24609 115.451C3.24609 114.714 3.24609 113.974 3.24609 113.243C3.24609 110.691 3.27645 108.122 3.32062 105.555C3.32062 104.89 3.34822 104.228 3.36202 103.56C3.40066 101.866 3.45586 100.171 3.52762 98.4769C3.54418 98.0051 3.56626 97.5359 3.5911 97.0668C3.5911 96.7964 3.6049 96.5259 3.63251 96.2555C3.69875 95.2731 3.75395 94.299 3.82019 93.3276Z" fill="#215FCB"/>
<path opacity="0.1" d="M59.5817 57.7517V92.1466H38.5195V57.7517H41.5225V46.1064H53.849V57.7517H59.5817Z" fill="#215FCB"/>
<path opacity="0.1" d="M59.5819 93.3247H38.5225V131.497H59.5819V93.3247Z" fill="#215FCB"/>
<path opacity="0.1" d="M38.5195 132.681H59.5817V164.416C57.0972 165.13 54.5655 165.667 52.0053 166.025L51.376 166.102C51.0669 166.138 50.7605 166.168 50.4569 166.199C50.1533 166.229 49.8386 166.251 49.5323 166.27H49.4357C49.3032 166.27 49.1596 166.287 49.0299 166.29H48.8892C48.7235 166.29 48.5579 166.306 48.3923 166.312C48.1577 166.326 47.9231 166.328 47.683 166.331C47.5809 166.331 47.4843 166.331 47.3822 166.331C47.1448 166.331 46.9102 166.331 46.6728 166.331H46.1512C46.0104 166.331 45.8751 166.331 45.7289 166.331L45.1962 166.312C44.9202 166.312 44.6221 166.282 44.335 166.262L43.8051 166.224L43.1454 166.163C42.6817 166.121 42.2208 166.069 41.7654 166.006L41.2134 165.928L40.9374 165.89C40.4764 165.818 40.021 165.741 39.5573 165.652C39.2178 165.594 38.8811 165.523 38.5388 165.454L38.5195 132.681Z" fill="#215FCB"/>
<path opacity="0.1" d="M191.24 53.6895H173.874V92.1436H191.24V53.6895Z" fill="#215FCB"/>
<path opacity="0.1" d="M191.243 93.3247V131.5H105.043V115.034H150.957V124.748H173.874V93.3247H191.243Z" fill="#215FCB"/>
<path opacity="0.1" d="M191.516 173.611H191.24V198.654C188.131 198.391 185.03 198.033 181.939 197.58C168.021 195.543 154.454 191.585 141.625 185.819C137.921 184.152 134.292 182.333 130.739 180.361C124.804 177.073 119.118 173.355 113.726 169.237C112.372 168.199 111.035 167.138 109.716 166.052C108.802 165.299 107.894 164.526 106.975 163.776C106.337 163.26 105.694 162.752 105.043 162.266V132.681H173.645C173.598 132.505 173.551 132.328 173.501 132.154C173.554 132.328 173.603 132.505 173.65 132.681H191.24V173.594C191.334 173.597 191.425 173.605 191.516 173.611Z" fill="#215FCB"/>
<path opacity="0.1" d="M236.534 50.8253H225.217V47.3096H230.29V36.8372C230.73 36.9972 231.168 37.1619 231.604 37.3311V47.3096H236.534V50.8253Z" fill="#215FCB"/>
<path opacity="0.1" d="M263.798 92.1466H208.243C208.243 92.1466 208.243 92.1466 208.262 92.1604L208.237 92.1466H197.931V53.6924H200.851V82.1157H214.196V65.2825H225.22V52.0063H236.536V65.2935H247.56V82.1267H263.798V92.1466Z" fill="#215FCB"/>
<path opacity="0.1" d="M197.931 93.3247V131.5H263.798V93.3247H197.931ZM281.678 176.436L281.769 146.22H263.798V132.698H197.931V199.065C203.331 199.291 208.74 199.227 214.133 198.871V198.871H214.227C216.803 198.71 219.367 198.474 221.919 198.165H221.977C235.593 196.581 248.906 193.029 261.501 187.621" fill="#215FCB"/>
<path opacity="0.1" d="M289.624 132.681H304.989C304.854 140.433 303.297 148.046 299.891 155.078C297.056 160.92 293.118 166.028 288.464 170.49V146.206H289.624V132.681Z" fill="#215FCB"/>
<path opacity="0.1" d="M304.997 131.5H289.624V99.5972H297.942C302.248 109.656 304.983 120.694 304.997 131.5Z" fill="#215FCB"/>
<path opacity="0.1" d="M191.243 64.3799H181.939V76.4363H191.243V64.3799Z" fill="#215FCB"/>
<path opacity="0.1" d="M191.243 89.3704H181.939V92.1465H191.243V89.3704Z" fill="#215FCB"/>
<path opacity="0.1" d="M191.243 93.3247H181.939V101.424H191.243V93.3247Z" fill="#215FCB"/>
<path opacity="0.1" d="M191.243 114.361H181.939V126.417H191.243V114.361Z" fill="#215FCB"/>
<path opacity="0.1" d="M191.243 139.351H181.939V151.407H191.243V139.351Z" fill="#215FCB"/>
<path opacity="0.1" d="M191.24 173.594C191.334 173.594 191.425 173.594 191.516 173.611H191.24V176.412H181.939V164.342H191.24V173.594Z" fill="#215FCB"/>
<path opacity="0.1" d="M191.24 189.326V198.64C188.131 198.377 185.03 198.019 181.939 197.566V189.326H191.24Z" fill="#215FCB"/>
<path opacity="0.1" d="M144.918 130.615H105.043V131.5H144.918V130.615Z" fill="#215FCB"/>
<path opacity="0.1" d="M144.918 132.678H105.043V136.073H144.918V132.678Z" fill="#215FCB"/>
<path opacity="0.1" d="M144.918 147.199H105.043V152.658H144.918V147.199Z" fill="#215FCB"/>
<path opacity="0.1" d="M144.915 163.784V169.242H113.727C112.372 168.208 111.035 167.147 109.713 166.058C108.8 165.304 107.895 164.532 106.973 163.784H144.915Z" fill="#215FCB"/>
<path opacity="0.1" d="M144.916 180.366V185.819H141.623C137.922 184.15 134.295 182.33 130.74 180.358L144.916 180.366Z" fill="#215FCB"/>
<path opacity="0.1" d="M221.985 97.0254H214.135V104.874H221.985V97.0254Z" fill="#215FCB"/>
<path opacity="0.1" d="M52.025 60.4587H44.1753V68.3069H52.025V60.4587Z" fill="#215FCB"/>
<path opacity="0.1" d="M52.025 78.6882H44.1753V86.5364H52.025V78.6882Z" fill="#215FCB"/>
<path opacity="0.1" d="M52.025 96.9177H44.1753V104.766H52.025V96.9177Z" fill="#215FCB"/>
<path opacity="0.1" d="M52.025 115.145H44.1753V122.993H52.025V115.145Z" fill="#215FCB"/>
<path opacity="0.1" d="M52.025 133.374H44.1753V141.222H52.025V133.374Z" fill="#215FCB"/>
<path opacity="0.1" d="M52.025 151.604H44.1753V159.452H52.025V151.604Z" fill="#215FCB"/>
<path opacity="0.1" d="M251.951 97.0254H244.102V104.874H251.951V97.0254Z" fill="#215FCB"/>
<path opacity="0.1" d="M221.985 116.384H214.135V124.232H221.985V116.384Z" fill="#215FCB"/>
<path opacity="0.1" d="M251.951 116.384H244.102V124.232H251.951V116.384Z" fill="#215FCB"/>
<path opacity="0.1" d="M221.985 135.739H214.135V143.587H221.985V135.739Z" fill="#215FCB"/>
<path opacity="0.1" d="M251.951 135.739H244.102V143.587H251.951V135.739Z" fill="#215FCB"/>
<path opacity="0.1" d="M221.985 155.097H214.135V162.945H221.985V155.097Z" fill="#215FCB"/>
<path opacity="0.1" d="M251.951 155.097H244.102V162.945H251.951V155.097Z" fill="#215FCB"/>
<path opacity="0.1" d="M221.985 174.455H214.135V182.303H221.985V174.455Z" fill="#215FCB"/>
<path opacity="0.1" d="M251.951 174.455H244.102V182.303H251.951V174.455Z" fill="#215FCB"/>
<path opacity="0.1" d="M214.135 198.872V193.811H221.982V198.151L214.135 198.872Z" fill="#215FCB"/>
<path opacity="0.1" d="M4.96826 82.3364V86.8262H31.8321V82.3364H4.96826ZM7.64554 86.5447H5.45404V82.6124H7.6621L7.64554 86.5447ZM10.3201 86.5447H8.11199V82.6124H10.3201V86.5447ZM12.9891 86.5447H10.781V82.6124H12.9891V86.5447ZM15.6636 86.5447H13.4583V82.6124H15.6663L15.6636 86.5447ZM18.3353 86.5447H16.1273V82.6124H18.3353V86.5447ZM21.0099 86.5447H18.8018V82.6124H21.0099V86.5447ZM23.6844 86.5447H21.4763V82.6124H23.6844V86.5447ZM26.3561 86.5447H24.1481V82.6124H26.3561V86.5447ZM29.0279 86.5447H26.8198V82.6124H29.0279V86.5447ZM31.6996 86.5447H29.4916V82.6124H31.6996V86.5447Z" fill="#215FCB"/>
<path opacity="0.1" d="M4.96826 95.3999V99.8897H31.8321V95.3999H4.96826ZM7.64554 99.6054H5.45404V95.6841H7.6621L7.64554 99.6054ZM10.3201 99.6054H8.11199V95.6841H10.3201V99.6054ZM12.9891 99.6054H10.781V95.6841H12.9891V99.6054ZM15.6636 99.6054H13.4583V95.6841H15.6663L15.6636 99.6054ZM18.3353 99.6054H16.1273V95.6841H18.3353V99.6054ZM21.0099 99.6054H18.8018V95.6841H21.0099V99.6054ZM23.6844 99.6054H21.4763V95.6841H23.6844V99.6054ZM26.3561 99.6054H24.1481V95.6841H26.3561V99.6054ZM29.0279 99.6054H26.8198V95.6841H29.0279V99.6054ZM31.6996 99.6054H29.4916V95.6841H31.6996V99.6054Z" fill="#215FCB"/>
<path opacity="0.1" d="M4.96826 108.469V112.967H31.8321V108.469H4.96826ZM7.64554 112.675H5.45404V108.751H7.6621L7.64554 112.675ZM10.3201 112.675H8.11199V108.751H10.3201V112.675ZM12.9891 112.675H10.781V108.751H12.9891V112.675ZM15.6636 112.675H13.4583V108.751H15.6663L15.6636 112.675ZM18.3353 112.675H16.1273V108.751H18.3353V112.675ZM21.0099 112.675H18.8018V108.751H21.0099V112.675ZM23.6844 112.675H21.4763V108.751H23.6844V112.675ZM26.3561 112.675H24.1481V108.751H26.3561V112.675ZM29.0279 112.675H26.8198V108.751H29.0279V112.675ZM31.6996 112.675H29.4916V108.751H31.6996V112.675Z" fill="#215FCB"/>
<path opacity="0.1" d="M4.96826 121.538V126.023H31.8321V121.538H4.96826ZM7.64554 125.744H5.45404V121.817H7.6621L7.64554 125.744ZM10.3201 125.744H8.11199V121.817H10.3201V125.744ZM12.9891 125.744H10.781V121.817H12.9891V125.744ZM15.6636 125.744H13.4583V121.817H15.6663L15.6636 125.744ZM18.3353 125.744H16.1273V121.817H18.3353V125.744ZM21.0099 125.744H18.8018V121.817H21.0099V125.744ZM23.6844 125.744H21.4763V121.817H23.6844V125.744ZM26.3561 125.744H24.1481V121.817H26.3561V125.744ZM29.0279 125.744H26.8198V121.817H29.0279V125.744ZM31.6996 125.744H29.4916V121.817H31.6996V125.744Z" fill="#215FCB"/>
<path opacity="0.1" d="M5.08398 134.605C5.19163 135.027 5.31307 135.449 5.44003 135.866V134.886H7.6481V138.81H6.46678C6.50266 138.901 6.53855 139.001 6.57443 139.086H31.8319V134.605H5.08398ZM10.3281 138.81H8.12007V134.886H10.3281V138.81ZM12.9971 138.81H10.7891V134.886H12.9971V138.81ZM15.6717 138.81H13.4581V134.886H15.6661L15.6717 138.81ZM18.3434 138.81H16.1353V134.886H18.3434V138.81ZM21.0179 138.81H18.8099V134.886H21.0179V138.81ZM23.6924 138.81H21.4844V134.886H23.6924V138.81ZM26.3642 138.81H24.1561V134.886H26.3642V138.81ZM29.036 138.81H26.8279V134.886H29.036V138.81ZM31.7077 138.81H29.4997V134.886H31.7077V138.81Z" fill="#215FCB"/>
<path opacity="0.1" d="M11.3218 147.674C11.3908 147.762 11.457 147.861 11.5288 147.95H12.9889V149.835C13.1462 150.022 13.3008 150.21 13.4608 150.386V147.939H15.6689V151.877H14.7746C14.863 151.968 14.9485 152.064 15.0506 152.153H31.8402V147.674H11.3218ZM18.3351 151.877H16.1271V147.955H18.3351V151.877ZM21.0097 151.877H18.8016V147.955H21.0097V151.877ZM23.6842 151.877H21.4761V147.955H23.6842V151.877ZM26.3559 151.877H24.1479V147.955H26.3559V151.877ZM29.0277 151.877H26.8196V147.955H29.0277V151.877ZM31.6995 151.877H29.4914V147.955H31.6995V151.877Z" fill="#215FCB"/>
<path opacity="0.1" d="M26.0581 160.74C26.3093 160.884 26.566 161.016 26.8254 161.16V161.022H29.0335V162.264L29.5027 162.482V161.022H31.7108V163.409C31.7531 163.43 31.7975 163.446 31.8432 163.458V160.74H26.0581Z" fill="#215FCB"/>
<path opacity="0.1" d="M208.243 92.1465H208.259H208.243ZM191.24 173.591H191.516H191.24ZM173.501 132.151C173.554 132.328 173.598 132.505 173.648 132.679C173.604 132.505 173.557 132.328 173.501 132.151ZM208.243 92.1382H208.259H208.243ZM41.5337 50.8169V51.9952H53.863V50.8169H41.5337ZM191.24 173.591H191.516H191.24ZM173.501 132.151C173.554 132.328 173.598 132.505 173.648 132.679C173.604 132.505 173.557 132.328 173.501 132.151ZM208.243 92.1382H208.259H208.243ZM191.24 173.583H191.516H191.24ZM173.501 132.151C173.554 132.328 173.598 132.505 173.648 132.679C173.604 132.505 173.557 132.328 173.501 132.151Z" fill="#215FCB"/>
<path d="M127.405 104.771C127.405 104.771 126.318 104.62 126.318 103.036C126.318 101.452 125.539 98.4935 125.539 98.4935C125.539 98.4797 124.866 93.3415 123.936 92.5246C123.006 91.7078 121.81 86.9117 121.81 86.9117C121.81 86.9117 121.606 84.3095 121.189 83.7493C120.773 83.1891 120.21 81.8176 119.379 79.8611C118.548 77.9046 115.084 76.5497 115.084 76.5497C115.084 76.5497 108.822 72.9181 107.047 71.7343C106.885 71.637 106.735 71.5233 106.597 71.3949C106.288 70.9892 104.941 70.9809 104.941 70.9809C104.8 70.0924 104.665 69.0713 104.621 68.1469C104.621 68.0475 104.621 67.9482 104.607 67.8489C106.586 66.6793 108.076 64.8353 108.805 62.6554C108.838 62.5505 108.866 62.4402 108.896 62.3353C109.015 62.2962 109.124 62.2329 109.216 62.1493C109.309 62.0656 109.383 61.9636 109.434 61.8496C109.594 61.4936 109.597 61.077 109.796 60.7458C110.028 60.354 110.469 60.1442 110.817 59.849C111.695 59.1039 111.921 57.8483 111.88 56.7058C111.852 55.7814 111.703 54.8487 111.761 53.9297L111.778 53.6979C111.794 53.56 111.813 53.422 111.838 53.2895C111.974 52.6052 112.269 51.9594 112.434 51.2806C112.6 50.6017 112.617 49.8374 112.23 49.2523C111.664 48.3941 110.486 48.223 109.451 48.1347C108.278 48.0354 107.229 48.1651 106.478 47.191C106.127 46.6818 105.732 46.2044 105.297 45.7643C105.142 45.6208 103.641 44.7046 103.641 44.6439C102.175 43.9653 100.514 43.8379 98.9625 44.2852C98.1842 44.5114 97.45 44.8812 96.6606 45.0661C94.9576 45.469 92.998 45.033 91.5517 46.0071C90.7457 46.559 90.2627 47.4366 89.8101 48.292C89.4421 48.9966 89.0685 49.7003 88.6895 50.4031C88.0795 51.5593 87.4585 52.7349 87.2018 54.0153C87.1478 54.2939 87.1146 54.5762 87.1024 54.8597V54.8735C87.1024 54.9756 87.1024 55.0777 87.1024 55.1798V55.3095C87.1024 55.4061 87.1024 55.4999 87.119 55.5855C87.1356 55.671 87.1328 55.6986 87.1411 55.7566C87.1494 55.8145 87.1632 55.9442 87.1797 56.0325C87.1963 56.1208 87.2294 56.2754 87.2625 56.3968C87.2763 56.4492 87.2956 56.4989 87.3122 56.5485C87.3398 56.6424 87.3729 56.7334 87.4088 56.8245C87.4281 56.8714 87.4474 56.9211 87.4695 56.968C87.5109 57.0646 87.5606 57.1584 87.6103 57.244C87.6324 57.2826 87.6489 57.3185 87.671 57.3543C87.748 57.4827 87.8328 57.6062 87.9249 57.7241C88.5156 58.4609 89.385 58.93 90.0281 59.6199C90.0281 59.6475 90.0281 59.6751 90.0281 59.6999C90.0281 59.7772 90.0281 59.8517 90.0281 59.929C90.0622 61.4676 90.4718 62.9745 91.2213 64.3187C91.9707 65.663 93.0373 66.8038 94.3283 67.6419C94.3283 67.7468 94.3421 67.8544 94.3476 67.9592C94.4015 68.7784 94.3913 69.6004 94.3173 70.418C94.2049 70.2856 94.0642 70.1802 93.9056 70.1095C93.747 70.0388 93.5745 70.0047 93.4009 70.0096C93.2823 70.0038 93.1635 70.014 93.0476 70.0399L93.0228 70.0206V70.0454C92.4156 70.1945 91.6676 70.8264 90.9527 72.6229C90.9527 72.6229 88.7778 75.0733 87.1218 74.9712C85.4657 74.8691 81.2731 77.521 81.2731 77.521C81.2731 77.521 77.1827 80.1757 76.305 82.8801C75.8144 84.4136 75.2262 85.9141 74.5441 87.3726L69.4876 97.7898L68.5547 106.055C68.5547 106.055 69.0708 109.73 68.9687 110.291C68.8666 110.851 71.0912 115.903 71.0912 115.903C71.0912 115.903 78.4413 128.815 81.4443 129.478L81.6596 129.326C81.788 129.393 81.9243 129.444 82.0653 129.478L82.6835 129.042C82.7207 129.528 82.7049 130.016 82.6366 130.499C82.2226 131.774 82.7912 140.094 83.5143 141.724C84.2375 143.355 83.9808 164.739 83.9808 164.739L83.8787 166.626C83.8787 166.626 83.8787 166.687 83.9035 166.792L83.8787 167.239L83.9532 167.278C84.0306 167.876 84.0054 168.484 83.8787 169.074C83.6192 169.902 83.5143 172.242 83.5143 172.242C83.5143 172.242 81.447 185.455 82.4269 188.109C83.4067 190.764 84.2402 193.673 84.2402 193.673C84.2402 193.673 85.2753 196.984 84.2899 197.55C83.3046 198.116 80.5031 199.065 81.0799 200.445C81.6044 201.72 83.5944 205.136 83.8897 205.635L83.8649 205.897L83.4591 210.293C83.5248 210.874 83.6823 211.44 83.9256 211.971C84.37 212.929 85.2339 213.922 86.8761 213.815C87.1521 213.795 87.4723 213.762 87.7814 213.721C90.7871 213.318 94.4884 211.977 94.4884 211.977C94.2962 211.855 94.1201 211.709 93.964 211.543V211.543C93.8163 211.4 93.6992 211.229 93.62 211.039C93.5407 210.849 93.5009 210.645 93.5031 210.44C93.5472 209.639 92.0485 205.826 91.6759 204.887C91.6179 204.752 91.5876 204.675 91.5876 204.675C91.5876 204.675 95.0045 201.104 94.436 197.939C94.436 197.939 90.6547 195.731 91.8995 194.52C93.1443 193.308 95.3689 189.829 95.3689 189.829C95.3689 189.829 95.471 176.817 95.3689 174.875C95.2624 173.526 95.3263 172.17 95.5593 170.838C95.6007 170.636 95.6504 170.44 95.7028 170.247C97.4244 170.504 99.1623 170.636 100.903 170.642C101.538 170.642 102.184 170.642 102.835 170.603C102.835 170.787 102.843 170.986 102.86 171.199C103.003 174.422 103.271 180.074 103.489 182.174C103.798 185.184 105.507 193.297 105.507 193.297C105.507 193.297 102.247 195.389 106.075 200.544C106.075 200.544 106.075 202.412 105.821 202.683C105.55 203.567 105.332 204.466 105.167 205.376C105.007 206.347 104.941 207.33 105.2 207.84C105.821 209.06 109.547 208.961 109.547 208.961L109.638 208.944C110.342 208.871 111.053 208.939 111.73 209.143C112.407 209.347 113.037 209.684 113.583 210.133C114.999 211.27 120.372 210.771 123.282 210.409C124.421 210.266 125.183 210.133 125.183 210.133C125.22 210.004 125.233 209.87 125.222 209.736C125.192 209.021 124.631 207.454 120.833 206.055C120.833 206.055 117.262 203.654 117.312 201.562H117.237H116.823C117.124 201.546 117.317 201.562 117.317 201.562C117.317 201.562 115.918 196.457 116.489 196.043C117.06 195.629 115.349 189.972 115.349 189.972C115.349 189.972 114.369 180.479 114.317 179.814C114.319 179.244 114.406 178.676 114.574 178.131L114.317 172.927C114.317 172.927 114.267 171.196 114.317 170.633C114.308 170.145 114.269 169.657 114.198 169.174C114.173 168.98 114.148 168.779 114.121 168.58C115.46 168.241 116.329 167.926 116.329 167.926L116.174 149.81C117.312 147.602 117.521 142.759 117.516 139.324C117.516 137.116 117.416 135.482 117.416 135.482L118.97 132.946C118.97 132.946 119.329 129.911 118.761 129.246C118.509 128.945 118.623 128.633 118.83 128.377C118.937 128.291 119.051 128.214 119.169 128.145C119.169 128.145 119.152 128.12 119.133 128.084C119.242 127.993 119.357 127.911 119.478 127.838C119.478 127.838 118.926 126.983 119.42 126.621C119.884 126.936 120.298 127.173 120.613 127.367C120.59 127.568 120.568 127.684 120.568 127.684L120.701 127.408C121.005 127.579 121.189 127.684 121.189 127.684C121.189 127.684 123.624 122.835 123.571 122.121C123.519 121.406 125.227 118.395 125.227 118.395C125.227 118.395 125.434 116.814 126.367 116.152C127.3 115.49 127.09 110.691 127.09 110.691C127.09 110.691 127.35 108.191 127.971 107.169C128.592 106.148 127.405 104.771 127.405 104.771ZM80.826 102.644L80.8729 103.8C80.5969 103.356 80.3982 103.036 80.3982 103.036L80.826 102.644Z" fill="url(#paint0_linear_689_588)"/>
<path d="M121.322 125.589L120.726 128.128C120.726 128.128 115.951 125.691 115.09 122.595C114.229 119.499 116.531 118.323 116.531 118.323L120.98 120.208L121.322 125.589Z" fill="white"/>
<path opacity="0.1" d="M121.322 125.589L120.726 128.128C120.726 128.128 115.951 125.691 115.09 122.595C114.229 119.499 116.531 118.323 116.531 118.323L120.98 120.208L121.322 125.589Z" fill="black"/>
<path d="M94.5246 211.993C94.5246 211.993 90.1085 213.616 87.0724 213.82C85.4605 213.928 84.6132 212.94 84.1771 211.988C83.9389 211.458 83.7852 210.895 83.7217 210.318L84.1164 205.944L84.3261 203.615L90.7764 201.94L91.69 204.733L91.7756 204.945C92.1427 205.878 93.6138 209.672 93.5696 210.464C93.5678 210.667 93.607 210.868 93.6848 211.056C93.7626 211.243 93.8774 211.413 94.0223 211.554C94.1704 211.721 94.3392 211.869 94.5246 211.993V211.993Z" fill="white"/>
<path d="M124.689 209.769C124.701 209.902 124.687 210.035 124.651 210.164C124.651 210.164 115.206 211.739 113.274 210.164C112.729 209.703 112.094 209.362 111.41 209.161C110.725 208.961 110.006 208.905 109.299 208.999C109.299 208.999 105.645 209.098 105.035 207.895C104.781 207.39 104.847 206.411 105.005 205.445C105.165 204.54 105.379 203.645 105.645 202.765L105.791 202.649L106.661 201.951L116.84 201.65H116.917C116.867 203.731 120.373 206.118 120.373 206.118C124.096 207.498 124.645 209.057 124.689 209.769Z" fill="white"/>
<path opacity="0.1" d="M124.689 209.769C124.699 209.902 124.685 210.036 124.648 210.164C124.648 210.164 115.206 211.739 113.274 210.164C112.729 209.704 112.095 209.362 111.411 209.162C110.727 208.961 110.009 208.906 109.302 208.999C109.302 208.999 105.645 209.098 105.038 207.895C104.784 207.388 104.847 206.411 105.005 205.445C106.412 205.586 108.634 205.936 109.506 206.772C110.826 208.044 113.061 209.314 114.433 209.413C115.507 209.482 121.929 209.686 124.689 209.769Z" fill="black"/>
<path opacity="0.1" d="M94.5245 211.993C94.5245 211.993 90.1083 213.616 87.0722 213.82C85.4604 213.928 84.613 212.94 84.1797 211.985C85.303 212.363 86.8625 212.76 87.6822 212.396C88.6538 211.965 92.0984 211.687 94.0304 211.568C94.1775 211.729 94.3433 211.872 94.5245 211.993V211.993Z" fill="black"/>
<path d="M101.077 81.2325C97.4337 79.8169 92.747 75.1395 93.9173 72.9539C94.1772 72.4024 94.3317 71.8071 94.3727 71.1988C94.448 70.3731 94.4591 69.5427 94.4059 68.7153C94.3238 67.3601 94.1607 66.011 93.9173 64.6753C93.9173 64.6753 105.292 64.9319 104.629 66.607C104.436 67.0982 104.406 67.9509 104.458 68.9057C104.511 69.8605 104.649 70.9394 104.792 71.8529C104.991 73.1057 105.189 74.0605 105.189 74.0605C105.189 74.0605 104.494 75.0346 104.085 75.087C103.677 75.1395 106.305 83.2497 101.077 81.2325Z" fill="#CF6F80"/>
<path opacity="0.1" d="M91.7671 204.945L91.6816 205.039C88.2812 200.927 84.1686 206.052 84.1686 206.052L84.1079 205.944L84.3177 203.615L90.768 201.94L91.6816 204.733L91.7671 204.945Z" fill="black"/>
<path opacity="0.1" d="M116.92 201.94C116.92 201.94 114.436 201.888 113.111 203.058C111.786 204.228 105.383 203.312 105.659 203.058C105.74 202.932 105.79 202.788 105.802 202.638L106.672 201.94L116.851 201.639C116.889 201.824 116.92 201.94 116.92 201.94Z" fill="black"/>
<path d="M95.9986 169.651C95.8136 170.108 95.6731 170.582 95.5791 171.066C95.3489 172.393 95.2849 173.742 95.3886 175.084C95.4907 177.016 95.3886 189.961 95.3886 189.961C95.3886 189.961 93.2054 193.413 91.9882 194.63C90.771 195.847 94.4723 198.033 94.4723 198.033C95.0243 201.178 91.6791 204.733 91.6791 204.733C88.2786 200.621 84.1661 205.748 84.1661 205.748C84.1661 205.748 81.9305 201.885 81.3729 200.505C80.8154 199.125 83.5561 198.171 84.5194 197.61C85.4827 197.05 84.4725 193.747 84.4725 193.747C84.4725 193.747 83.6583 190.852 82.6922 188.211C81.7262 185.571 83.7576 172.424 83.7576 172.424C83.7576 172.424 83.8625 170.09 84.1137 169.275C84.2404 168.688 84.2656 168.083 84.1882 167.487C84.1716 167.286 84.1523 167.118 84.1385 167.004C84.1247 166.891 84.1137 166.839 84.1137 166.839L84.1523 166.773L85.5324 164.201C85.5324 164.201 96.661 168.031 95.9986 169.651Z" fill="#215FCB"/>
<path d="M116.92 201.637C116.92 201.637 114.435 201.584 113.111 202.741C111.786 203.897 105.382 202.994 105.658 202.741C105.934 202.487 105.912 200.607 105.912 200.607C102.156 195.48 105.36 193.399 105.36 193.399C105.36 193.399 103.682 185.328 103.379 182.334C103.166 180.242 102.904 174.621 102.763 171.411C102.702 170.032 102.667 169.082 102.667 169.082L105.736 168.464L106.13 168.384L113.533 166.9C113.533 166.9 113.737 168.279 113.875 169.408C113.944 169.89 113.983 170.376 113.991 170.862C113.941 171.414 113.991 173.142 113.991 173.142L114.242 178.321C114.078 178.865 113.994 179.429 113.991 179.996C114.041 180.656 115.004 190.099 115.004 190.099C115.004 190.099 116.679 195.734 116.108 196.14C115.537 196.545 116.92 201.637 116.92 201.637Z" fill="#215FCB"/>
<path opacity="0.1" d="M104.629 66.607C104.436 67.0982 104.406 67.9509 104.458 68.9057C102.935 69.8229 101.183 70.2919 99.4051 70.2587C97.627 70.2255 95.8942 69.6915 94.406 68.718C94.3241 67.3619 94.1609 66.0119 93.9175 64.6753C93.9175 64.6753 105.292 64.9264 104.629 66.607Z" fill="black"/>
<path d="M109.026 60.5084C109.028 61.5028 108.872 62.4912 108.562 63.4362C107.871 65.5538 106.453 67.3588 104.559 68.5322C102.665 69.7056 100.417 70.1718 98.2129 69.8485C96.0085 69.5252 93.9894 68.4332 92.5124 66.7654C91.0354 65.0977 90.1956 62.9616 90.1415 60.7346C90.1415 60.6574 90.1415 60.5856 90.1415 60.5084C90.1201 59.2549 90.3485 58.0097 90.8135 56.8454C91.2784 55.6811 91.9706 54.621 92.8497 53.727C93.7287 52.8329 94.777 52.1229 95.9334 51.6381C97.0898 51.1534 98.3312 50.9038 99.5851 50.9038C100.839 50.9038 102.08 51.1534 103.237 51.6381C104.393 52.1229 105.442 52.8329 106.321 53.727C107.2 54.621 107.892 55.6811 108.357 56.8454C108.822 58.0097 109.05 59.2549 109.029 60.5084H109.026Z" fill="#CF6F80"/>
<path opacity="0.1" d="M101.077 81.2324C97.4337 79.8168 92.747 75.1393 93.9173 72.9538C94.1772 72.4023 94.3317 71.807 94.3727 71.1987L99.3602 75.2966L102.446 77.8271L104.792 71.8555C104.991 73.1083 105.189 74.0631 105.189 74.0631C105.189 74.0631 104.494 75.0372 104.085 75.0897C103.677 75.1421 106.305 83.2496 101.077 81.2324Z" fill="black"/>
<path d="M113.975 99.3433L109.81 169.298L104.378 169.654L90.3125 129.091L92.6199 80.9344L93.1057 70.76L99.36 75.8955L102.449 78.426L104.864 72.2805L109.354 76.1935L113.975 99.3433Z" fill="#215FCB"/>
<path opacity="0.1" d="M95.9984 169.651C95.8133 170.108 95.6729 170.582 95.5788 171.067C91.6264 170.456 87.7877 169.257 84.1907 167.51L84.1162 167.471L84.1411 167.027L84.1549 166.795L85.5349 164.223C85.5349 164.223 96.6608 168.031 95.9984 169.651Z" fill="black"/>
<path opacity="0.1" d="M105.8 171.078C104.789 171.249 103.77 171.365 102.747 171.425C102.686 170.045 102.65 169.096 102.65 169.096L105.72 168.478L105.8 171.078Z" fill="black"/>
<path opacity="0.1" d="M113.859 169.422C111.897 169.932 108.866 170.506 106.153 170.148L106.114 168.398L113.517 166.913C113.517 166.913 113.721 168.279 113.859 169.422Z" fill="black"/>
<path opacity="0.1" d="M106.103 170.468C94.7868 172.399 84.4227 166.861 84.4227 166.861L84.5221 164.984C84.5221 164.984 84.7787 143.711 84.0666 142.08C83.3545 140.449 82.7998 132.179 83.2027 130.91C83.6057 129.64 81.7316 110.605 81.7316 110.605L81.428 102.878L70.3159 98.3775L75.2841 88.0237C75.9551 86.5721 76.5322 85.0789 77.0119 83.5533C77.8758 80.8655 81.8862 78.2246 81.8862 78.2246C81.8862 78.2246 85.9987 75.5865 87.6244 75.6859C89.2501 75.7852 91.3809 73.3513 91.3809 73.3513C92.9541 69.3417 94.3783 71.1574 94.3783 71.1574C94.3783 71.3479 94.3783 71.1575 94.301 71.7508C93.749 76.1522 103.227 90.0603 103.362 90.3059L104.265 112.288L105.178 140.107L106.103 170.468Z" fill="black"/>
<path d="M105.799 170.468C94.4831 172.399 84.1162 166.861 84.1162 166.861L84.2183 164.984C84.2183 164.984 84.475 143.711 83.7602 142.08C83.0453 140.449 82.4933 132.179 82.899 130.91C83.3047 129.64 81.4279 110.605 81.4279 110.605L81.1215 102.878L70.0039 98.3609L74.9721 88.0071C75.6416 86.5549 76.2187 85.0618 76.6999 83.5367C77.561 80.8489 81.5742 78.208 81.5742 78.208C81.5742 78.208 85.6867 75.5699 87.3096 75.6692C88.9325 75.7686 91.0661 73.3347 91.0661 73.3347C92.6421 69.3251 94.3782 71.1408 94.3782 71.1408C94.3782 71.3313 94.2126 71.4168 94.3009 71.7341C95.5153 76.0032 102.923 90.0437 103.059 90.2893L103.972 112.272L104.886 140.091L105.799 170.468Z" fill="white"/>
<path opacity="0.1" d="M102.75 90.9157C101.532 90.4079 95.0848 83.0482 95.0848 83.0482V81.3732C94.8502 80.8213 93.4563 81.1579 92.3247 81.5443L92.8105 71.3699L93.3625 71.828C94.5714 76.0942 102.609 90.6701 102.75 90.9157Z" fill="black"/>
<path d="M103.056 90.3058C101.836 89.7981 95.3885 82.4384 95.3885 82.4384V80.7633C95.1539 80.2114 93.7601 80.5481 92.6284 80.9344L93.1169 70.76L93.669 71.2181C94.8806 75.4843 102.921 90.063 103.056 90.3058Z" fill="white"/>
<path opacity="0.1" d="M84.4228 127.011C84.5746 127.011 92.2918 126.199 92.2918 126.199C92.2918 126.199 96.9646 135.386 96.6582 137.621C96.3519 139.856 95.7971 141.835 93.9175 141.484C92.0378 141.134 83.8018 141.76 83.8018 141.76L84.4228 127.011Z" fill="black"/>
<path d="M84.1161 126.401C84.2679 126.401 91.9851 125.589 91.9851 125.589C91.9851 125.589 96.6552 134.779 96.3516 137.011C96.048 139.244 95.4877 141.225 93.6108 140.874C91.734 140.524 83.4951 141.15 83.4951 141.15L84.1161 126.401Z" fill="white"/>
<path d="M89.9316 122.087C89.9316 122.087 97.014 125.893 97.1658 127.055C97.3176 128.216 93.5611 126.547 92.7496 126.345C92.2155 126.217 91.6718 126.132 91.1239 126.091L85.7114 126.238L89.9316 122.087Z" fill="#CF6F80"/>
<path opacity="0.1" d="M100.774 91.3903C101.185 91.3903 101.519 91.0567 101.519 90.6452C101.519 90.2337 101.185 89.9001 100.774 89.9001C100.362 89.9001 100.028 90.2337 100.028 90.6452C100.028 91.0567 100.362 91.3903 100.774 91.3903Z" fill="black"/>
<path d="M100.774 91.0868C101.185 91.0868 101.519 90.7533 101.519 90.3418C101.519 89.9303 101.185 89.5967 100.774 89.5967C100.362 89.5967 100.028 89.9303 100.028 90.3418C100.028 90.7533 100.362 91.0868 100.774 91.0868Z" fill="#3F3D56"/>
<path opacity="0.1" d="M102.145 123.644C102.557 123.644 102.89 123.31 102.89 122.899C102.89 122.487 102.557 122.154 102.145 122.154C101.734 122.154 101.4 122.487 101.4 122.899C101.4 123.31 101.734 123.644 102.145 123.644Z" fill="black"/>
<path d="M102.145 123.338C102.557 123.338 102.89 123.004 102.89 122.592C102.89 122.181 102.557 121.847 102.145 121.847C101.734 121.847 101.4 122.181 101.4 122.592C101.4 123.004 101.734 123.338 102.145 123.338Z" fill="#3F3D56"/>
<path opacity="0.1" d="M101.516 107.517C101.927 107.517 102.261 107.183 102.261 106.772C102.261 106.36 101.927 106.027 101.516 106.027C101.104 106.027 100.771 106.36 100.771 106.772C100.771 107.183 101.104 107.517 101.516 107.517Z" fill="black"/>
<path d="M101.516 107.214C101.927 107.214 102.261 106.88 102.261 106.468C102.261 106.057 101.927 105.723 101.516 105.723C101.104 105.723 100.771 106.057 100.771 106.468C100.771 106.88 101.104 107.214 101.516 107.214Z" fill="#3F3D56"/>
<path d="M118.694 125.937C118.694 125.937 119.202 126.699 118.694 127.055C118.186 127.411 118.744 128.272 118.744 128.272C118.744 128.272 117.477 129.014 118.035 129.682C118.592 130.35 118.239 133.366 118.239 133.366L116.715 135.888C116.715 135.888 116.806 137.513 116.812 139.71C116.812 143.137 116.61 147.955 115.495 150.152L115.65 168.174C115.65 168.174 110.315 170.123 105.849 169.529L105.187 140.609C105.187 140.609 106.153 124.21 106.509 121.064C106.717 119.43 106.802 117.784 106.763 116.138C106.763 116.138 106.611 111.215 106.1 108.93C106.1 108.93 105.548 99.0315 105.493 96.2913C105.468 94.9805 105.537 91.1558 105.614 87.5187C105.7 83.5422 105.796 79.792 105.796 79.792L104.789 71.8225C104.789 71.8225 105.796 71.7204 106.1 72.126C106.236 72.253 106.384 72.3667 106.542 72.4655V72.4655C108.281 73.641 114.425 77.256 114.425 77.256C114.425 77.256 117.825 78.6082 118.639 80.5454C119.453 82.4826 120.019 83.8568 120.414 84.4087C120.809 84.9606 121.024 87.5546 121.024 87.5546C121.024 87.5546 122.194 92.3286 123.108 93.1372C124.021 93.9457 124.689 99.0895 124.689 99.0895L116.616 105.436C116.616 105.436 115.907 115.994 115.755 116.403C115.603 116.811 118.694 125.937 118.694 125.937Z" fill="white"/>
<path d="M119.001 125.937C119.001 125.937 119.506 126.699 119.001 127.055C118.496 127.411 119.048 128.272 119.048 128.272C119.048 128.272 117.789 129.022 118.341 129.69C118.893 130.358 118.546 133.374 118.546 133.374L117.022 135.896C117.022 135.896 117.113 137.522 117.121 139.718C117.121 143.145 116.92 147.964 115.805 150.16L115.957 168.183C115.957 168.183 110.613 170.131 106.153 169.538L105.493 140.618C105.493 140.618 106.459 124.218 106.815 121.072C107.024 119.439 107.108 117.792 107.066 116.146C107.066 116.146 106.915 111.223 106.407 108.938C106.407 108.938 105.855 99.0398 105.797 96.2996C105.772 94.9888 105.844 91.1641 105.918 87.527C106.004 83.5505 106.1 79.8003 106.1 79.8003L104.77 71.7231C104.77 71.7231 106.1 71.7231 106.407 72.1343C106.541 72.2628 106.69 72.3766 106.848 72.4737C108.587 73.6493 114.734 77.2643 114.734 77.2643C114.734 77.2643 118.132 78.6165 118.946 80.5537C119.76 82.4909 120.326 83.8651 120.723 84.417C121.121 84.9689 121.331 87.5629 121.331 87.5629C121.331 87.5629 122.501 92.3369 123.414 93.1454C124.328 93.954 124.988 99.0867 124.988 99.0867L116.914 105.434C116.914 105.434 116.205 115.992 116.05 116.4C115.896 116.808 119.001 125.937 119.001 125.937Z" fill="white"/>
<path opacity="0.1" d="M109.332 82.1431L110.061 84.2679L106.224 88.1313C106.31 84.1575 106.407 80.4046 106.407 80.4046L105.076 72.3274C105.076 72.3274 106.407 72.3274 106.713 72.7386C106.847 72.8667 106.995 72.9796 107.155 73.0752L110.417 82.4852L109.332 82.1431Z" fill="black"/>
<path d="M109.026 81.5332L109.757 83.6581L105.921 87.5214C106.007 83.5449 106.103 79.7947 106.103 79.7947L104.77 71.7175C104.77 71.7175 106.103 71.7175 106.407 72.1287C106.542 72.2564 106.69 72.3702 106.848 72.4681L110.114 81.8754L109.026 81.5332Z" fill="white"/>
<path opacity="0.1" d="M109.026 60.5084C109.028 61.5028 108.872 62.4912 108.562 63.4362C108.51 63.4444 108.457 63.442 108.406 63.4292C108.355 63.4164 108.306 63.3934 108.264 63.3617C108.192 60.8781 106.97 58.5463 105.465 56.5622C105.043 55.9632 104.531 55.4326 103.947 54.9893C103.357 54.5461 102.623 54.3386 101.888 54.407C101.06 54.5202 100.329 55.0831 99.4927 55.1549C98.3886 55.2459 97.4005 54.4815 96.3048 54.4429C95.8593 54.4471 95.4199 54.5463 95.0158 54.7338C94.6117 54.9213 94.2523 55.1928 93.9615 55.5302C93.3858 56.211 92.9581 57.0042 92.7056 57.8592C92.2717 59.1558 92.0353 60.5102 92.0046 61.8771C91.9908 62.6498 91.9163 63.6184 91.1986 63.8998C91.2527 63.3316 91.1881 62.7583 91.0089 62.2163C90.8298 61.6743 90.5401 61.1754 90.1581 60.7512L90.1415 60.7346C90.1415 60.6574 90.1415 60.5856 90.1415 60.5084C90.1201 59.2549 90.3485 58.0097 90.8135 56.8454C91.2784 55.6811 91.9706 54.621 92.8497 53.727C93.7287 52.8329 94.777 52.1229 95.9334 51.6381C97.0898 51.1534 98.3312 50.9038 99.5851 50.9038C100.839 50.9038 102.08 51.1534 103.237 51.6381C104.393 52.1229 105.442 52.8329 106.321 53.727C107.2 54.621 107.892 55.6811 108.357 56.8454C108.822 58.0097 109.05 59.2549 109.029 60.5084H109.026Z" fill="black"/>
<path d="M103.495 45.5158C102.061 44.8413 100.429 44.7137 98.9075 45.1571C98.143 45.3834 97.4226 45.7504 96.647 45.9353C94.991 46.3354 93.0589 45.9022 91.6375 46.8708C90.8481 47.4227 90.3734 48.2947 89.9318 49.1419L88.8277 51.2446C88.226 52.3954 87.6188 53.5654 87.3676 54.832C87.1165 56.0987 87.2683 57.5171 88.0715 58.5353C88.6566 59.2777 89.5205 59.744 90.1553 60.4422C90.5356 60.8668 90.8241 61.3655 91.0027 61.9068C91.1813 62.4481 91.2461 63.0205 91.1931 63.5881C91.9135 63.3121 91.9825 62.3407 91.9991 61.5681C92.0298 60.2012 92.2662 58.8467 92.7001 57.5502C92.952 56.6949 93.3798 55.9016 93.956 55.2211C94.247 54.884 94.6065 54.6127 95.0105 54.4253C95.4145 54.2378 95.8539 54.1385 96.2993 54.1339C97.4033 54.1725 98.3942 54.9341 99.4872 54.8431C100.315 54.7741 101.049 54.2084 101.883 54.098C102.618 54.0285 103.352 54.2362 103.942 54.6803C104.525 55.1229 105.037 55.6536 105.457 56.2532C106.964 58.2373 108.187 60.5636 108.259 63.0527C108.571 63.2817 109.02 62.9837 109.175 62.6305C109.33 62.2773 109.335 61.8633 109.531 61.5267C109.757 61.1376 110.191 60.9306 110.53 60.6381C111.391 59.8958 111.607 58.6457 111.574 57.5116C111.54 56.3774 111.32 55.2267 111.535 54.1118C111.665 53.4274 111.957 52.7872 112.117 52.1111C112.277 51.4351 112.297 50.6762 111.919 50.0939C111.367 49.2385 110.205 49.0701 109.192 48.9901C108.041 48.8908 107.011 49.0177 106.277 48.0491C105.932 47.5436 105.544 47.0691 105.118 46.6307C104.971 46.4872 103.495 45.5766 103.495 45.5158Z" fill="#512E4E"/>
<path opacity="0.1" d="M73.4956 103.709L70.6113 98.3774L69.6978 106.604C69.6978 106.604 70.2056 110.257 70.1035 110.817C70.0014 111.378 72.1846 116.4 72.1846 116.4C72.1846 116.4 79.3967 129.243 82.3417 129.905L92.2918 122.797L89.6531 119.447C89.6531 119.447 88.7396 119.091 88.5105 119.447C88.5105 119.447 83.6113 111.019 83.1035 110.409C82.5956 109.799 82.695 108.582 82.695 108.582C82.695 108.582 81.9332 107.771 82.1871 107.009C82.441 106.248 80.716 103.607 80.716 103.607L82.2892 102.136L73.4956 103.709Z" fill="black"/>
<path d="M70.7628 97.7705L70.001 98.3776L69.0874 106.604C69.0874 106.604 69.5953 110.257 69.4931 110.818C69.391 111.378 71.577 116.4 71.577 116.4C71.577 116.4 78.7863 129.243 81.7313 129.905L91.6842 122.797L89.0428 119.447C89.0428 119.447 88.1292 119.091 87.9001 119.447C87.9001 119.447 83.001 111.019 82.4931 110.409C81.9853 109.799 82.0874 108.582 82.0874 108.582C82.0874 108.582 81.3256 107.771 81.5795 107.009C81.8335 106.248 80.1056 103.607 80.1056 103.607L81.6789 102.136L70.7628 97.7705Z" fill="white"/>
<path opacity="0.1" d="M118.035 129.996C118.587 130.667 118.239 133.678 118.239 133.678L116.715 136.2C116.715 136.2 116.806 137.828 116.812 140.022L114.251 140.822C114.019 140.894 113.774 140.91 113.535 140.868C113.296 140.826 113.071 140.728 112.877 140.581C112.684 140.435 112.529 140.244 112.425 140.025C112.32 139.806 112.27 139.566 112.277 139.324L112.719 125.082L118.694 127.366C118.186 127.72 118.744 128.586 118.744 128.586C118.744 128.586 117.477 129.326 118.035 129.996Z" fill="black"/>
<path d="M118.341 129.69C118.893 130.361 118.545 133.374 118.545 133.374L117.022 135.896C117.022 135.896 117.113 137.522 117.121 139.718L114.513 140.532C114.286 140.603 114.046 140.618 113.812 140.577C113.578 140.536 113.358 140.439 113.169 140.296C112.98 140.152 112.828 139.965 112.725 139.751C112.623 139.537 112.574 139.301 112.581 139.064L113.025 124.778L119.003 127.063C118.493 127.416 119.05 128.28 119.05 128.28C119.05 128.28 117.789 129.022 118.341 129.69Z" fill="white"/>
<path d="M120.32 122.901C120.32 122.901 119.914 125.493 118.899 125.644C117.883 125.796 117.427 129.836 116.414 129.693C115.402 129.549 116.072 125.937 116.108 125.236C116.144 124.535 115.004 121.632 115.857 120.973C116.71 120.313 119.409 120.973 119.409 120.973L120.32 122.901Z" fill="#CF6F80"/>
<path opacity="0.1" d="M122.481 102.947L124.397 99.084C124.397 99.084 125.159 102.028 125.159 103.601C125.159 105.174 126.224 105.329 126.224 105.329C126.224 105.329 127.391 106.709 126.776 107.713C126.16 108.718 125.912 111.218 125.912 111.218C125.912 111.218 126.114 115.989 125.2 116.648C124.286 117.308 124.096 118.884 124.096 118.884C124.096 118.884 122.418 121.878 122.47 122.59C122.523 123.302 120.135 128.123 120.135 128.123C120.135 128.123 121.303 122.132 114.499 119.543C114.499 119.543 114.447 117.509 114.955 116.952C115.462 116.395 116.255 116.141 115.758 113.323C115.261 110.506 115.614 107.139 115.614 106.463C115.614 105.787 117.138 101.57 117.138 101.57L122.481 102.947Z" fill="black"/>
<path d="M123.309 98.532L124.982 99.0839C124.982 99.0839 125.747 102.028 125.747 103.601C125.747 105.174 126.812 105.329 126.812 105.329C126.812 105.329 127.979 106.708 127.364 107.713C126.748 108.717 126.503 111.218 126.503 111.218C126.503 111.218 126.704 115.989 125.791 116.648C124.877 117.308 124.673 118.884 124.673 118.884C124.673 118.884 122.997 121.878 123.05 122.59C123.102 123.302 120.712 128.122 120.712 128.122C120.712 128.122 121.882 122.132 115.076 119.543C115.076 119.543 115.026 117.509 115.534 116.952C116.042 116.394 116.834 116.141 116.337 113.323C115.841 110.506 116.194 107.139 116.194 106.463C116.194 105.787 117.717 101.57 117.717 101.57L123.309 98.532Z" fill="white"/>
<path opacity="0.1" d="M86.3657 198.667C86.3657 198.667 89.032 196.992 90.7819 198.209C92.5317 199.426 86.3657 198.667 86.3657 198.667Z" fill="black"/>
<path opacity="0.1" d="M107.083 193.488C107.083 193.488 109.443 193.184 111.425 195.317C113.406 197.45 107.083 193.488 107.083 193.488Z" fill="black"/>
<g opacity="0.1">
<path d="M110.536 60.0339C110.196 60.3264 109.76 60.5361 109.534 60.9252C109.341 61.2591 109.335 61.6703 109.181 62.029C109.026 62.3878 108.576 62.6803 108.264 62.454C108.192 59.9704 106.967 57.6386 105.463 55.6517C105.042 55.0521 104.531 54.5215 103.947 54.0788C103.357 53.6347 102.621 53.4271 101.886 53.4965C101.058 53.6097 100.329 54.1726 99.4926 54.2416C98.3886 54.3354 97.3977 53.571 96.302 53.5324C95.8567 53.5368 95.4175 53.6364 95.0138 53.8244C94.6101 54.0124 94.2513 54.2845 93.9614 54.6224C93.3852 55.3019 92.9575 56.0942 92.7056 56.9487C92.2719 58.2453 92.0355 59.5997 92.0045 60.9666C91.988 61.7365 91.9162 62.6968 91.2041 62.9838C91.2207 63.1877 91.2207 63.3926 91.2041 63.5964C91.9217 63.3205 91.9935 62.3491 92.01 61.5764C92.0408 60.2096 92.2771 58.8551 92.7111 57.5586C92.963 56.7033 93.3908 55.91 93.9669 55.2295C94.2575 54.8925 94.6164 54.6212 95.02 54.4337C95.4236 54.2462 95.8625 54.1469 96.3075 54.1423C97.4115 54.1809 98.4052 54.9425 99.4982 54.8515C100.326 54.7825 101.06 54.2168 101.891 54.1064C102.627 54.037 103.362 54.2446 103.953 54.6886C104.536 55.1313 105.048 55.662 105.468 56.2616C106.972 58.2457 108.198 60.572 108.27 63.0611C108.582 63.2901 109.031 62.9921 109.186 62.6389C109.341 62.2856 109.346 61.8717 109.539 61.5351C109.766 61.146 110.202 60.939 110.541 60.6465C111.402 59.9042 111.618 58.6541 111.585 57.5199C111.585 57.4841 111.585 57.4482 111.585 57.4151C111.532 58.3975 111.27 59.3992 110.536 60.0339Z" fill="black"/>
<path d="M90.1606 59.838C89.5258 59.1398 88.6592 58.6734 88.0768 57.9339C87.5864 57.2792 87.3063 56.4911 87.2736 55.6738C87.1867 56.6951 87.472 57.7134 88.0768 58.541C88.6592 59.2833 89.5258 59.7497 90.1606 60.4478C90.7701 61.1307 91.1361 61.9964 91.2012 62.9093C91.2434 62.3537 91.1731 61.7953 90.9943 61.2675C90.8155 60.7398 90.5319 60.2535 90.1606 59.838V59.838Z" fill="black"/>
<path d="M112.122 51.5068C111.96 52.1829 111.67 52.8259 111.537 53.5075C111.459 53.963 111.43 54.4256 111.452 54.8873C111.461 54.6243 111.49 54.3623 111.537 54.1036C111.67 53.4192 111.96 52.779 112.122 52.1029C112.217 51.73 112.248 51.3437 112.214 50.9604C112.196 51.1445 112.166 51.3271 112.122 51.5068V51.5068Z" fill="black"/>
</g>
<path opacity="0.1" d="M36.6345 209.888C51.4877 209.888 63.5287 207.954 63.5287 205.569C63.5287 203.184 51.4877 201.25 36.6345 201.25C21.7812 201.25 9.74023 203.184 9.74023 205.569C9.74023 207.954 21.7812 209.888 36.6345 209.888Z" fill="#215FCB"/>
<path d="M37.5011 122.838H35.7705V161.795H37.5011V122.838Z" fill="#535461"/>
<path d="M48.3759 161.676L48.2683 163.431L48.1137 165.915L48.0503 166.947L47.8984 169.43L47.8322 170.462L47.6776 172.946L45.9333 201.112C45.8575 202.324 45.3226 203.462 44.4376 204.293C43.5526 205.125 42.3839 205.588 41.1694 205.588H32.0997C30.8855 205.588 29.7172 205.125 28.8326 204.293C27.948 203.462 27.4137 202.324 27.3386 201.112L25.6025 172.927L25.4479 170.443L25.3845 169.411L25.2299 166.927L25.1664 165.895L25.0119 163.412L24.9015 161.657C24.8823 161.319 24.9323 160.981 25.0486 160.663C25.1648 160.345 25.3447 160.054 25.5773 159.809C25.8099 159.563 26.0903 159.367 26.4012 159.234C26.7122 159.1 27.0471 159.032 27.3855 159.032H45.936C46.2732 159.035 46.6061 159.107 46.9143 159.244C47.2226 159.38 47.4996 159.578 47.7282 159.826C47.9568 160.074 48.1323 160.366 48.2437 160.684C48.3551 161.002 48.4001 161.34 48.3759 161.676V161.676Z" fill="#3F3D56"/>
<path d="M48.2685 163.431L48.1139 165.906H25.1555L25.001 163.431H48.2685Z" fill="#9D9CB5"/>
<path d="M48.0501 166.938L47.8983 169.416H25.3733L25.2188 166.938H48.0501Z" fill="#9D9CB5"/>
<path d="M47.8323 170.451L47.6805 172.926H25.5916L25.437 170.451H47.8323Z" fill="#9D9CB5"/>
<path d="M22.3593 137.439C32.4363 144.729 36.6427 156.132 36.6427 156.132C36.6427 156.132 24.4983 155.715 14.4185 148.424C4.33871 141.134 0.140625 129.734 0.140625 129.734C0.140625 129.734 12.2795 130.148 22.3593 137.439Z" fill="#215FCB"/>
<path d="M0.132324 129.734C0.132324 129.734 12.7404 136.73 16.7839 142.522C20.8274 148.314 36.6427 156.132 36.6427 156.132" stroke="#535461" stroke-width="2" stroke-miterlimit="10"/>
<path d="M28.8647 122.753C34.349 126.718 36.6426 132.924 36.6426 132.924C36.6426 132.924 30.0322 132.698 24.5452 128.733C19.0581 124.767 16.77 118.558 16.77 118.558C16.77 118.558 23.3777 118.784 28.8647 122.753Z" fill="#215FCB"/>
<path d="M16.77 118.558C16.77 118.558 23.6316 122.366 25.8314 125.518C28.0312 128.669 36.6426 132.924 36.6426 132.924" stroke="#535461" stroke-width="2" stroke-miterlimit="10"/>
<path d="M44.6056 132.61C38.3043 139.533 36.9712 148.582 36.9712 148.582C36.9712 148.582 45.8559 146.402 52.1516 139.475C58.4474 132.549 59.786 123.503 59.786 123.503C59.786 123.503 50.9068 125.686 44.6056 132.61Z" fill="#215FCB"/>
<path d="M59.7915 123.506C59.7915 123.506 51.5831 130.603 49.4964 135.493C47.4098 140.383 36.9712 148.582 36.9712 148.582" stroke="#535461" stroke-width="2" stroke-miterlimit="10"/>
<path d="M275.917 130.173C275.917 130.173 271.36 107.506 273.104 104.686C273.104 104.686 273.168 102.064 273.063 98.7225C273.063 98.5956 273.063 98.4686 273.063 98.3389C273.37 98.5435 273.69 98.7279 274.021 98.8908C275.628 99.7164 277.473 99.9546 279.237 99.5642L277.857 98.0271C277.526 97.6601 277.181 97.2627 277.109 96.777C277.038 96.2914 277.236 95.8581 277.407 95.4249C278.718 92.1134 278.787 87.9493 276.262 85.4215C274.128 83.2967 273.61 80.5537 271.294 78.6138C269.602 77.1926 268.672 75.1092 267.794 73.0947C267.052 71.3921 266.304 69.6756 265.879 67.8709C265.547 66.4608 265.415 65.001 264.959 63.624C264.504 62.247 263.651 60.9086 262.318 60.2932C261.843 60.0752 261.316 59.951 260.883 59.6613C260.314 59.2777 259.972 58.654 259.561 58.1077C257.471 55.3481 250.475 56.9735 247.162 58.0938C246.262 58.376 245.428 58.8379 244.712 59.4515L244.742 59.4019C244.767 59.3605 244.797 59.3191 244.825 59.2777C244.462 59.5708 244.149 59.9202 243.897 60.3125C243.414 61.0769 243.213 61.9682 242.81 62.7961C242.324 63.7757 239.622 66.5104 240.784 67.6115C240.865 67.6854 240.959 67.7451 241.06 67.7881C241.496 67.9696 241.976 68.0176 242.44 67.9261L242.39 68.0447C241.993 69.0162 241.79 70.0557 241.791 71.1051C241.791 75.639 245.531 79.3147 250.149 79.3147C251.017 79.3155 251.88 79.1824 252.707 78.9201C252.727 79.0249 252.743 79.1298 252.763 79.2347C252.763 79.2761 252.776 79.3174 252.782 79.3588L252.636 79.5631C252.628 79.5505 252.62 79.5385 252.611 79.5272L248.278 85.5816C247.615 86.048 243.801 88.8075 243.585 90.8772C243.359 93.1427 243.133 95.7946 243.133 95.7946L243.102 96.3631C242.913 96.5213 242.692 96.6366 242.453 96.7009C242.215 96.7652 241.966 96.7771 241.722 96.7356C240.37 96.5149 240.37 101.703 240.37 101.703C240.37 101.703 239.47 102.531 238.852 101.813C238.234 101.096 236.6 103.527 236.6 103.527L226.36 103.968L226.125 103.982L225.573 102.274C225.514 102.094 225.386 101.944 225.217 101.858C225.048 101.772 224.851 101.756 224.671 101.813C224.628 101.827 224.586 101.845 224.546 101.866L224.508 101.888L224.436 101.937L224.4 101.97C224.38 101.988 224.362 102.008 224.345 102.028L224.312 102.067L224.295 102.084C224.231 102.172 224.189 102.274 224.172 102.381C224.155 102.488 224.163 102.598 224.196 102.702L224.671 104.167C222.694 104.564 220.674 105.685 222.322 108.77L213.97 107.227L216.672 109.496L230.621 112.374C230.436 112.705 230.558 113.185 231.135 113.861C233.619 116.778 238.145 117.57 239.967 117.774C240.448 118.85 241.049 119.869 241.758 120.81L241.601 123.716C241.601 123.716 236.989 145.864 236.144 146.987C236.571 146.504 236.961 145.99 237.312 145.45C235.973 150 234.102 156.229 233.61 157.161C232.821 158.651 232.09 164.681 232.989 165.067C233.265 165.186 234.055 165.128 235.181 165.042V165.542L235.131 184.47C235.131 184.47 235.358 196.079 234.737 197.186C234.116 198.292 233.95 200.613 233.95 200.613C233.95 200.613 231.466 205.191 229.498 207.032C229.485 207.046 229.47 207.059 229.454 207.07L229.393 206.64C229.393 206.64 227.028 209.626 221.795 209.457C221.795 209.457 218.645 211.505 223.315 211.615C227.985 211.726 233.95 211.45 233.95 211.45C233.95 211.45 238.115 205.103 241.604 205.931V210.74H242.672V205.853C243.167 205.527 243.591 205.104 243.918 204.609C244.245 204.114 244.468 203.559 244.574 202.975C244.665 202.374 244.598 201.759 244.379 201.191C244.16 200.624 243.797 200.123 243.326 199.738C243.114 199.547 242.944 199.314 242.827 199.053C242.71 198.793 242.647 198.511 242.644 198.226L242.606 198.259C242.606 198.162 242.581 198.063 242.57 197.961C242.263 195.477 241.88 190.353 243.235 186.561C245.092 181.362 245.655 174.121 244.303 169.811C243.867 168.433 243.508 167.032 243.229 165.614C243.196 165.434 243.166 165.263 243.138 165.103C244.063 165.228 244.978 165.413 245.879 165.655C249.012 166.519 255.865 166.679 261.716 166.632C261.73 166.792 261.747 166.96 261.766 167.129C261.87 168.299 262.089 169.456 262.417 170.584C263.152 172.791 263.488 182.524 263.488 182.524C263.488 182.524 264.435 190.527 263.919 193.783C263.643 195.593 263.367 197.412 263.21 199.239V199.275C263.21 199.275 261.658 203.69 260.524 206.088C260.496 206.149 260.466 206.209 260.438 206.267C260.136 206.295 259.838 206.361 259.552 206.463C259.552 206.463 258.032 209.499 256.516 210.001C255.001 210.503 255.503 212.156 258.934 211.549C262.365 210.942 267.546 210.445 267.546 210.445L267.769 207.349L268.824 206.03L268.548 209.118L269.671 208.897L269.522 205.141L271.247 202.983C271.247 202.983 273.331 201.129 270.234 197.481V197.561C270.201 197.508 270.17 197.453 270.135 197.401V197.384C269.621 196.589 269.213 195.108 269.961 192.478C271.313 187.726 272.1 183.413 272.1 183.413C272.1 183.413 275.119 171.859 271.49 166.392H271.65C271.278 165.623 271.015 164.805 270.869 163.963C270.85 163.864 270.834 163.762 270.819 163.657C273.505 163.503 276.141 163.017 278.291 161.968C278.282 161.957 276.988 134.539 275.917 130.173ZM241.822 111.049V111.105L241.27 111.132L241.822 111.049ZM239.928 111.312C239.838 111.332 239.753 111.372 239.68 111.43C239.443 111.766 239.294 112.156 239.247 112.564L238.385 112.371C238.385 112.371 237.781 112.241 236.912 112.095L236.5 111.681C237.632 111.587 238.808 111.449 239.928 111.312V111.312Z" fill="url(#paint1_linear_689_588)"/>
<path d="M268.421 205.18L268.092 209.09L269.194 208.869L269.028 204.628L268.421 205.18Z" fill="#1D2366"/>
<path d="M243.295 186.614C241.968 190.394 242.343 195.497 242.641 197.975C242.752 198.891 242.854 199.448 242.854 199.448C242.854 199.448 240.869 203.968 240.704 204.14C240.538 204.311 234.863 207.774 234.863 207.774L230.897 210.089C230.897 210.089 226.873 208.326 228.802 207.719C229.197 207.561 229.552 207.319 229.843 207.009C231.775 205.174 234.201 200.613 234.201 200.613C234.201 200.613 234.367 198.298 234.974 197.197C235.581 196.096 235.36 184.525 235.36 184.525L235.407 165.663V163.205L242.956 163.26C243.004 164.094 243.112 164.925 243.282 165.743C243.553 167.157 243.904 168.553 244.333 169.927C245.664 174.229 245.112 181.434 243.295 186.614Z" fill="#FFB0B1"/>
<path opacity="0.1" d="M242.854 199.448C242.854 199.448 240.869 203.968 240.704 204.14C240.538 204.311 234.863 207.774 234.863 207.774L230.897 210.089C230.897 210.089 226.873 208.326 228.802 207.719C229.197 207.56 229.552 207.318 229.843 207.009L230.014 208.215L231.336 208.16L242.652 197.98C242.752 198.891 242.854 199.448 242.854 199.448Z" fill="black"/>
<path d="M242.716 198.237L231.336 208.486L230.014 208.541L229.738 206.609C229.738 206.609 227.425 209.584 222.286 209.418C222.286 209.418 219.2 211.458 223.774 211.568C228.347 211.679 234.188 211.403 234.188 211.403C234.188 211.403 238.267 205.056 241.681 205.883V210.677H242.73V205.839C243.218 205.511 243.634 205.088 243.954 204.594C244.273 204.101 244.49 203.549 244.59 202.969C244.681 202.373 244.617 201.763 244.404 201.199C244.19 200.634 243.836 200.134 243.373 199.746C243.167 199.553 243.002 199.319 242.889 199.059C242.776 198.8 242.717 198.52 242.716 198.237V198.237Z" fill="#1D2366"/>
<path d="M269.469 192.508C268.735 195.13 269.135 196.606 269.638 197.398V197.415C270.282 198.392 270.73 199.486 270.957 200.635L271.001 200.883L265.823 208.431L263.013 209.534C263.013 209.534 258.495 207.992 259.32 207.55C259.527 207.443 259.85 206.869 260.22 206.077C261.324 203.69 262.848 199.286 262.848 199.286V199.25C263.008 197.431 263.262 195.618 263.543 193.813C264.048 190.565 263.121 182.593 263.121 182.593C263.121 182.593 262.79 172.899 262.072 170.694C261.748 169.573 261.533 168.423 261.429 167.261C261.28 165.881 261.247 164.744 261.247 164.744C261.247 164.744 264.222 160.605 269.676 165.076C270.112 165.432 270.496 165.848 270.816 166.312C274.584 171.671 271.55 183.476 271.55 183.476C271.55 183.476 270.791 187.77 269.469 192.508Z" fill="#FFB0B1"/>
<path opacity="0.1" d="M271.009 200.883L265.831 208.431L263.022 209.534C263.022 209.534 258.503 207.992 259.329 207.55C259.536 207.443 259.859 206.869 260.229 206.077C262.141 206.06 263.132 207.882 263.132 207.882L265.555 207.495C265.555 207.495 268.752 201.214 269.469 200.831C270.187 200.447 269.58 197.964 269.58 197.964V197.332C269.599 197.354 269.616 197.379 269.638 197.401V197.417C270.282 198.395 270.73 199.489 270.957 200.638L271.009 200.883Z" fill="black"/>
<path d="M263.298 208.044C263.298 208.044 261.918 205.511 259.274 206.446C259.274 206.446 257.786 209.482 256.298 209.973C254.811 210.464 255.308 212.12 258.669 211.516C262.031 210.911 267.099 210.412 267.099 210.412L267.319 207.324L270.736 202.972C270.736 202.972 272.773 201.126 269.743 197.492V198.124C269.743 198.124 270.35 200.607 269.632 200.991C268.915 201.374 265.73 207.658 265.73 207.658L263.298 208.044Z" fill="#1D2366"/>
<path opacity="0.1" d="M242.964 163.254C243.012 164.089 243.121 164.919 243.29 165.738C240.182 165.282 237.298 165.509 235.407 165.658V163.199L242.964 163.254Z" fill="black"/>
<path opacity="0.1" d="M271.123 166.999C271.123 166.999 266.707 167.214 261.44 167.258C261.291 165.879 261.258 164.742 261.258 164.742C261.258 164.742 264.234 160.602 269.688 165.073C270.124 165.429 270.507 165.846 270.827 166.309C270.913 166.544 271.012 166.775 271.123 166.999V166.999Z" fill="black"/>
<path d="M271.123 166.502C271.123 166.502 251.78 167.438 245.885 165.785C239.989 164.132 234.146 165.564 233.266 165.18C232.385 164.797 233.1 158.789 233.873 157.302C234.646 155.814 238.885 140.772 238.885 140.772L242.965 119.507L247.262 118.323L247.566 118.238L255.054 116.174L260.541 114.659C260.541 114.659 271.451 157.247 270.516 160.387C270.176 161.589 270.121 162.855 270.356 164.082C270.499 164.92 270.757 165.735 271.123 166.502V166.502Z" fill="#1D2366"/>
<path d="M228.745 104.965C228.745 104.965 224.881 109.104 227.806 111.411C230.732 113.718 232.656 111.632 232.656 111.632L228.745 104.965Z" fill="#C7DAF5"/>
<path opacity="0.1" d="M228.745 104.965C228.745 104.965 224.881 109.104 227.806 111.411C230.732 113.718 232.656 111.632 232.656 111.632L228.745 104.965Z" fill="black"/>
<path d="M259.964 77.7499C259.964 77.7499 259.511 78.1804 258.829 78.8151C257.858 79.723 256.42 81.0503 255.145 82.1624C253.378 83.6995 251.921 84.8281 252.442 83.8651C252.964 82.902 252.865 81.2242 252.605 79.654C252.586 79.5491 252.569 79.4443 252.55 79.3422C252.335 78.189 252.05 77.05 251.697 75.9314C251.697 75.9314 254.551 72.2446 256.13 70.7904C256.718 70.2385 257.129 70.0122 257.154 70.3958C257.182 70.9118 257.568 72.0515 258.048 73.2602C258.062 73.2988 258.076 73.3347 258.092 73.3733C258.413 74.2012 258.774 75.0511 259.092 75.7851C259.577 76.911 259.964 77.7499 259.964 77.7499Z" fill="#FFB0B1"/>
<path opacity="0.1" d="M258.092 73.3732C257.824 74.8155 257.173 76.1592 256.208 77.2641C255.243 78.3689 253.999 79.1943 252.605 79.6539C252.386 78.3942 252.083 77.1506 251.697 75.9313C251.697 75.9313 257.071 68.9911 257.154 70.3957C257.173 70.9283 257.593 72.1094 258.092 73.3732Z" fill="black"/>
<path opacity="0.1" d="M252.07 81.5084L252.766 80.5288C252.766 80.5288 253.227 83.338 254.921 82.099C256.616 80.86 256.699 91.4235 256.699 91.4235L254.88 118.613L241.736 117.827L242.109 104.689L243.597 98.0657L247.276 88.4376L249.465 85.2559L252.07 81.5084Z" fill="black"/>
<path d="M256.699 91.5918L255.043 116.177L254.869 118.782L247.541 118.343L247.265 118.326L241.745 117.995L242.117 104.854L243.605 98.2312L247.284 88.6032L249.473 85.4215L252.078 81.6602L252.774 80.6833C252.774 80.6833 253.235 83.4926 254.93 82.2535L254.965 82.2287C256.621 81.1801 256.699 91.5918 256.699 91.5918Z" fill="#1D2366"/>
<path d="M243.79 95.9297C243.79 95.9297 243.13 97.3095 241.805 97.0859C240.48 96.8624 240.483 102.053 240.483 102.053C240.483 102.053 239.603 102.881 238.996 102.163C238.388 101.446 236.787 103.872 236.787 103.872L226.757 104.313C226.757 104.313 231.22 106.352 230.345 112.523C230.345 112.523 245.498 111.585 245.995 110.152C246.492 108.72 243.79 95.9297 243.79 95.9297Z" fill="white"/>
<path opacity="0.03" d="M243.79 95.9297C243.79 95.9297 243.13 97.3095 241.805 97.0859C240.48 96.8624 240.483 102.053 240.483 102.053C240.483 102.053 239.603 102.881 238.996 102.163C238.388 101.446 236.787 103.872 236.787 103.872L226.757 104.313C226.757 104.313 231.22 106.352 230.345 112.523C230.345 112.523 245.498 111.585 245.995 110.152C246.492 108.72 243.79 95.9297 243.79 95.9297Z" fill="black"/>
<path d="M214.641 107.556L217.285 109.813L239.051 114.386L236.351 111.631L214.641 107.556Z" fill="white"/>
<path d="M252.111 82.3778C251.75 82.9297 250.715 85.7554 249.851 88.2225C249.13 90.2783 248.529 92.0858 248.529 92.0858C248.529 92.0858 247.124 101.231 246.406 102.884C245.689 104.537 246.078 110.983 246.078 110.983L243.403 126.903C243.403 126.903 242.192 135.113 240.32 140.016C238.474 144.843 236.417 147.105 236.354 147.177C237.182 146.057 241.695 123.997 241.695 123.997L243.185 96.1755C243.185 96.1755 243.403 93.5318 243.624 91.2718C243.845 89.0117 248.316 85.9265 248.316 85.9265L252.627 79.7976C253.061 80.3771 252.771 81.3871 252.111 82.3778Z" fill="white"/>
<path d="M240.87 118.133C240.87 118.133 234.521 117.857 231.447 114.165C228.372 110.473 238.554 112.691 238.554 112.691L241.201 113.298L240.87 118.133Z" fill="#FFB0B1"/>
<path opacity="0.1" d="M270.515 160.39C270.176 161.592 270.121 162.857 270.355 164.085C263.43 164.576 256.022 162.705 256.022 162.705C254.642 163.974 251.007 165.845 251.007 165.845L249.025 141.286C247.759 137.974 247.262 120.625 247.262 120.625C247.262 120.625 247.375 119.717 247.538 118.357C247.538 118.323 247.538 118.288 247.552 118.254C248.046 114.455 249.025 107.321 249.506 106.358C250.168 105.034 247.469 101.51 247.469 101.51L248.697 91.0371L248.846 89.7733C251.435 88.617 253.419 84.9248 253.419 84.9248L254.943 82.2563C256.599 81.1939 256.685 91.6056 256.685 91.6056L255.029 116.19L260.516 114.675C260.516 114.675 271.451 157.249 270.515 160.39Z" fill="black"/>
<path d="M277.623 162.087C270.074 165.834 256.354 162.363 256.354 162.363C254.974 163.632 251.339 165.503 251.339 165.503L249.354 140.943C248.09 137.632 247.593 120.283 247.593 120.283C247.593 120.283 249.189 107.338 249.851 106.016C250.044 105.63 249.95 105.056 249.721 104.437C248.595 101.495 248.181 98.3285 248.512 95.1957L249.042 90.6949L249.189 89.4338C251.78 88.2748 253.765 84.5826 253.765 84.5826L255.145 82.1652L257.684 77.7113L258.888 75.603L259.092 75.7879L260.651 77.2008C260.651 77.2008 261.314 77.7527 262.307 78.5806C264.468 80.4019 268.203 83.6084 270.129 85.5705C271.824 87.2979 272.359 94.0174 272.514 99.0756C272.616 102.406 272.555 105.017 272.555 105.017C270.847 107.829 275.316 130.405 275.316 130.405C276.356 134.768 277.623 162.087 277.623 162.087Z" fill="white"/>
<path opacity="0.03" d="M263.132 84.5274C263.132 84.5274 257.952 94.3872 258.553 98.1347C259.155 101.882 260.866 106.124 260.041 107.114C259.758 107.49 259.391 107.794 258.97 108.004C258.549 108.215 258.085 108.324 257.615 108.326C256.787 108.381 254.579 109.923 254.579 110.089C254.579 110.255 252.539 110.255 250.715 111.027C248.89 111.8 246.197 112.239 246.197 112.239C246.197 112.239 240.952 112.073 240.464 112.57C239.975 113.067 239.473 116.039 240.519 118.409C241.565 120.779 242.727 122.548 243.605 122.871C244.483 123.194 250.052 121.329 254.571 120.887C259.089 120.446 263.994 116.866 263.994 116.866C263.994 116.866 269.395 114.935 270.342 111.687C271.288 108.439 269.185 90.5874 269.185 90.5874C269.185 90.5874 267.595 82.2673 263.132 84.5274Z" fill="black"/>
<path opacity="0.03" d="M262.47 83.6995C262.47 83.6995 257.289 93.5621 257.897 97.3068C258.504 101.051 260.21 105.296 259.382 106.289C259.099 106.665 258.733 106.97 258.313 107.18C257.892 107.39 257.428 107.5 256.958 107.501C256.13 107.556 253.922 109.098 253.922 109.264C253.922 109.429 251.882 109.429 250.058 110.199C248.234 110.969 245.54 111.411 245.54 111.411C245.54 111.411 240.296 111.245 239.81 111.742C239.324 112.239 238.816 115.213 239.865 117.581C240.914 119.949 242.073 121.72 242.951 122.043C243.828 122.366 249.398 120.501 253.917 120.062C258.435 119.623 263.34 116.039 263.34 116.039C263.34 116.039 268.738 114.107 269.674 110.862C270.61 107.616 268.517 89.7594 268.517 89.7594C268.517 89.7594 266.933 81.4422 262.47 83.6995Z" fill="black"/>
<path d="M262.97 84.0307C262.97 84.0307 257.789 93.8932 258.396 97.6379C259.003 101.383 260.709 105.627 259.884 106.617C259.601 106.994 259.235 107.3 258.814 107.511C258.393 107.721 257.929 107.831 257.458 107.832C256.63 107.887 254.422 109.429 254.422 109.592C254.422 109.755 252.385 109.758 250.558 110.53C248.73 111.303 246.039 111.742 246.039 111.742C246.039 111.742 240.795 111.576 240.307 112.073C239.818 112.57 239.316 115.545 240.362 117.912C241.408 120.28 242.57 122.052 243.448 122.374C244.325 122.697 249.895 120.832 254.413 120.39C258.932 119.949 263.836 116.37 263.836 116.37C263.836 116.37 269.238 114.438 270.184 111.19C271.131 107.942 269.042 90.0906 269.042 90.0906C269.042 90.0906 267.43 81.7844 262.97 84.0307Z" fill="white"/>
<path opacity="0.1" d="M262.856 110.484C262.856 110.484 258.716 109.656 260.157 111.036C261.598 112.415 261.59 113.624 263.353 113.569C265.117 113.514 262.856 110.484 262.856 110.484Z" fill="black"/>
<path opacity="0.1" d="M269.853 140.171C269.853 140.171 267.982 141.437 271.562 144.357C275.141 147.276 269.853 140.171 269.853 140.171Z" fill="black"/>
<path opacity="0.1" d="M266.282 150.583C266.282 150.748 265.619 156.653 268.098 158.13C270.576 159.606 266.282 150.583 266.282 150.583Z" fill="black"/>
<path d="M226.928 104.3C224.93 104.369 220.613 104.978 222.852 109.154C224.831 112.849 228.157 110.379 230.028 108.505C229.571 106.758 228.462 105.253 226.928 104.3V104.3Z" fill="#FFB0B1"/>
<path d="M230.053 108.473L230.137 108.386L230.053 108.473Z" fill="#FFB0B1"/>
<path opacity="0.1" d="M262.307 78.7489C260.187 80.1977 258.41 81.4202 258.062 81.674C257.112 82.3777 255.302 86.5087 254.134 88.617C253.204 90.3141 250.182 90.7502 249.042 90.8578L249.188 89.5967C251.78 88.4377 253.765 84.7454 253.765 84.7454L258.887 75.7659L260.651 77.3692C260.651 77.3692 261.313 77.9211 262.307 78.7489Z" fill="black"/>
<path d="M262.307 78.5834C260.187 80.0322 258.41 81.2546 258.062 81.5113C257.112 82.2122 255.302 86.3432 254.134 88.4515C253.204 90.1486 250.182 90.5846 249.042 90.6922L249.188 89.4311C251.78 88.2721 253.765 84.5799 253.765 84.5799L258.887 75.6003L260.651 77.1981C260.651 77.1981 261.313 77.7445 262.307 78.5834Z" fill="#DCE7FF"/>
<path d="M258.228 71.552C258.229 73.2086 257.726 74.8263 256.787 76.1908C255.677 77.8041 254.026 78.9664 252.133 79.4666C250.24 79.9668 248.23 79.7719 246.468 78.9173C244.706 78.0626 243.309 76.6049 242.53 74.8084C241.751 73.012 241.643 70.996 242.223 69.1262C242.804 67.2564 244.036 65.6566 245.695 64.6172C247.355 63.5778 249.332 63.1677 251.268 63.4611C253.205 63.7546 254.971 64.7323 256.248 66.2167C257.525 67.7012 258.227 69.5941 258.228 71.552V71.552Z" fill="#FFB0B1"/>
<path opacity="0.1" d="M272.514 99.0784C271.393 98.3891 270.48 97.4087 269.872 96.2416C269.411 95.331 269.105 94.2796 268.318 93.6339C267.609 93.0544 266.662 92.9136 265.779 92.6542C262.876 91.796 260.441 89.1469 260.35 86.1224C260.306 84.6985 260.75 83.2773 260.549 81.8672C260.434 81.0691 260.117 80.3138 259.627 79.6734C259.384 79.3671 259.117 79.0802 258.829 78.8152C258.443 78.4509 258.037 78.0977 257.684 77.7113C257.461 77.4721 257.267 77.2083 257.104 76.9249C256.973 76.693 256.867 76.4479 256.787 76.1936C256.235 74.5048 256.737 72.5013 256.13 70.7932L256.097 70.6994C255.868 70.0923 255.401 69.4852 254.753 69.4383C254.104 69.3913 253.549 69.9295 252.931 70.1695C251.637 70.6718 250.24 69.8163 249.161 68.9443C248.082 68.0723 246.864 67.0761 245.493 67.2693C244.585 67.399 243.867 68.0171 243.031 68.3372C242.842 68.4103 242.647 68.4666 242.448 68.5055C243.156 66.7408 244.456 65.2777 246.126 64.3674C247.795 63.4571 249.73 63.1565 251.597 63.5173C253.464 63.8782 255.147 64.8778 256.357 66.3445C257.567 67.8113 258.229 69.6535 258.228 71.5548C258.229 72.129 258.168 72.7016 258.048 73.263C258.062 73.3016 258.076 73.3375 258.092 73.3761C258.413 74.204 258.774 75.0539 259.092 75.7879L260.651 77.2008C260.651 77.2008 261.313 77.7527 262.307 78.5806C264.468 80.4019 268.203 83.6085 270.129 85.5705C271.824 87.3035 272.354 94.0202 272.514 99.0784Z" fill="black"/>
<path d="M242.934 63.2956C243.329 62.4925 243.525 61.5929 243.997 60.8313C244.689 59.7275 245.898 59.021 247.14 58.5933C250.383 57.4757 257.237 55.8531 259.285 58.5933C259.688 59.1452 260.022 59.7578 260.579 60.1387C261.004 60.4284 261.517 60.5526 261.984 60.7706C263.289 61.3832 264.123 62.7188 264.567 64.082C265.012 65.4452 265.144 66.9078 265.47 68.3124C265.887 70.1144 266.618 71.8225 267.347 73.5196C268.205 75.5231 269.116 77.601 270.772 79.0166C273.033 80.9483 273.532 83.683 275.63 85.8023C278.114 88.319 278.034 92.4721 276.753 95.7698C276.585 96.203 276.394 96.6556 276.461 97.1164C276.527 97.5773 276.869 97.9967 277.192 98.3638L278.55 99.8953C275.337 100.671 271.702 98.9929 270.206 96.0485C269.745 95.1379 269.439 94.0892 268.65 93.4407C267.943 92.8612 266.994 92.7233 266.113 92.4639C263.209 91.6029 260.775 88.951 260.684 85.9265C260.64 84.5054 261.084 83.0842 260.883 81.6768C260.771 80.8734 260.452 80.1128 259.958 79.4692C259.199 78.4785 258.054 77.8135 257.435 76.7097C256.389 74.8635 257.184 72.4655 256.431 70.4842C256.199 69.8771 255.735 69.27 255.087 69.223C254.438 69.1761 253.883 69.7142 253.262 69.9543C251.97 70.4566 250.574 69.6039 249.495 68.7291C248.415 67.8543 247.198 66.8609 245.824 67.0568C244.916 67.1837 244.201 67.8019 243.364 68.1248C242.746 68.3621 241.493 68.5746 240.952 68.053C239.809 67.0016 242.456 64.278 242.934 63.2956Z" fill="#591D4B"/>
<path opacity="0.1" d="M270.974 95.1377C270.51 94.2271 270.207 93.1784 269.417 92.5327C268.711 91.9532 267.761 91.8125 266.878 91.5531C263.977 90.6948 261.543 88.0429 261.449 85.0185C261.405 83.5973 261.849 82.1734 261.65 80.766C261.535 79.9678 261.216 79.2125 260.726 78.5722C259.964 77.5815 258.819 76.9165 258.203 75.8127C257.157 73.9693 257.952 71.5713 257.196 69.5872C256.967 68.9828 256.5 68.3757 255.854 68.326C255.208 68.2764 254.648 68.82 254.03 69.0601C252.738 69.5623 251.339 68.7069 250.262 67.8349C249.186 66.9628 247.963 65.9666 246.591 66.1598C245.683 66.2895 244.966 66.9076 244.132 67.2277C243.514 67.4651 242.258 67.6803 241.717 67.1588C240.58 66.0549 243.227 63.3368 243.702 62.3599C244.096 61.5541 244.292 60.6573 244.767 59.8957C244.792 59.8543 244.819 59.8129 244.847 59.7715C244.492 60.0656 244.185 60.4139 243.939 60.8035C243.467 61.5652 243.271 62.4593 242.876 63.2678C242.399 64.2447 239.752 66.9711 240.892 68.0667C241.444 68.591 242.686 68.3757 243.304 68.1384C244.132 67.8155 244.855 67.1974 245.763 67.0705C247.143 66.8745 248.358 67.8707 249.434 68.7427C250.511 69.6147 251.918 70.4702 253.205 69.968C253.823 69.7279 254.364 69.187 255.026 69.2367C255.689 69.2864 256.13 69.8907 256.37 70.4978C257.124 72.4791 256.329 74.8772 257.375 76.7233C257.993 77.8078 259.139 78.4867 259.898 79.4829C260.392 80.1264 260.71 80.8871 260.822 81.6905C261.024 83.0978 260.579 84.519 260.624 85.9402C260.715 88.9757 263.149 91.6165 266.053 92.4775C266.928 92.7369 267.883 92.8749 268.589 93.4544C269.381 94.1029 269.693 95.1515 270.146 96.0621C271.642 99.0066 275.277 100.684 278.49 99.9089L277.849 99.1859C275.064 99.2273 272.246 97.6434 270.974 95.1377Z" fill="black"/>
<path opacity="0.1" d="M251.946 82.5433C251.584 83.0952 250.549 85.921 249.685 88.388C248.877 88.0734 248.143 86.0672 248.143 86.0672L252.454 79.9355C252.895 80.5426 252.606 81.5499 251.946 82.5433Z" fill="black"/>
<path d="M252.111 82.3777C251.75 82.9296 250.715 85.7554 249.851 88.2224C249.042 87.9106 248.308 85.9016 248.308 85.9016L252.619 79.7727C253.061 80.377 252.771 81.387 252.111 82.3777Z" fill="#DCE7FF"/>
<path d="M227.044 110.569L224.654 103.033C224.626 102.945 224.615 102.852 224.623 102.759C224.631 102.667 224.657 102.577 224.699 102.495C224.742 102.413 224.8 102.339 224.871 102.28C224.942 102.22 225.024 102.175 225.112 102.147V102.147C225.29 102.092 225.483 102.109 225.648 102.194C225.814 102.28 225.939 102.428 225.996 102.605L228.386 110.133L228.148 111.709L227.044 110.569Z" fill="#BE8B87"/>
<path opacity="0.1" d="M224.88 102.371C225.058 102.314 225.252 102.331 225.418 102.417C225.584 102.502 225.709 102.651 225.766 102.829L228.156 110.357L227.977 111.538L228.151 111.72L228.388 110.144L225.984 102.616C225.927 102.439 225.802 102.291 225.637 102.205C225.471 102.12 225.279 102.103 225.101 102.158V102.158C224.951 102.207 224.822 102.304 224.734 102.434C224.781 102.409 224.83 102.388 224.88 102.371V102.371Z" fill="white"/>
<path d="M227.044 110.569L228.386 110.144L228.19 111.436L228.148 111.72L227.757 111.312L227.044 110.569Z" fill="#EFC8C4"/>
<path d="M227.756 111.311C227.78 111.282 227.809 111.258 227.842 111.24C227.861 111.227 227.884 111.221 227.907 111.221C227.93 111.221 227.952 111.227 227.972 111.24C227.99 111.262 228.006 111.287 228.019 111.314C228.037 111.345 228.062 111.371 228.091 111.39C228.121 111.41 228.155 111.423 228.19 111.427L228.148 111.703L227.756 111.311Z" fill="#727A9C"/>
<path d="M224.64 105.709C224.64 105.709 229.434 105.682 228.306 107.721C227.177 109.76 225.413 110.006 225.413 110.006L224.64 105.709Z" fill="#FFB0B1"/>
<path d="M194.823 14.1895H194.616C186.38 14.1895 179.096 18.5468 174.906 24.9765C170.716 18.5468 163.433 14.1895 155.197 14.1895H154.99C148.809 14.2483 142.901 16.7437 138.55 21.1332C134.198 25.5227 131.756 31.4517 131.752 37.6317C131.752 45.306 135.114 56.1951 141.669 65.1553C154.159 82.2286 174.906 97.166 174.906 97.166C174.906 97.166 195.654 82.2313 208.14 65.1553C214.698 56.1951 218.057 45.306 218.057 37.6317C218.054 31.4522 215.612 25.5236 211.261 21.1342C206.911 16.7447 201.004 14.2491 194.823 14.1895V14.1895ZM191.861 66.4689C190.923 66.4653 190.009 66.1782 189.237 65.6454C188.465 65.1125 187.872 64.3588 187.536 63.4831H182.612C182.288 63.481 181.973 63.3778 181.71 63.1879C181.447 62.9979 181.25 62.7306 181.147 62.4234L179.634 57.8674L174.848 74.5874C174.755 74.9093 174.56 75.1922 174.292 75.3938C174.024 75.5953 173.699 75.7045 173.363 75.705H173.267C172.917 75.6881 172.584 75.5518 172.323 75.3187C172.061 75.0857 171.888 74.7701 171.832 74.4246L166.899 44.7651L163.295 62.3158C163.212 62.6492 163.02 62.9453 162.749 63.1569C162.479 63.3684 162.145 63.4833 161.801 63.4831H154.865C154.657 63.4919 154.45 63.4585 154.255 63.385C154.06 63.3115 153.883 63.1994 153.732 63.0554C153.582 62.9115 153.463 62.7386 153.381 62.5472C153.299 62.3558 153.257 62.1499 153.257 61.9419C153.257 61.7338 153.299 61.5279 153.381 61.3365C153.463 61.1451 153.582 60.9722 153.732 60.8283C153.883 60.6843 154.06 60.5722 154.255 60.4987C154.45 60.4252 154.657 60.3919 154.865 60.4007H160.587L165.693 36.8039C165.777 36.455 165.979 36.1461 166.266 35.9299C166.552 35.7137 166.905 35.6037 167.263 35.6187C167.622 35.6337 167.964 35.7727 168.232 36.0121C168.499 36.2514 168.675 36.5761 168.729 36.9308L173.766 67.1864L178.056 52.2269C178.145 51.9118 178.334 51.6341 178.594 51.4352C178.854 51.2362 179.172 51.1268 179.499 51.1231H179.529C179.854 51.1232 180.17 51.2257 180.433 51.416C180.695 51.6063 180.891 51.8746 180.992 52.1828L183.728 60.4089H187.476C187.742 59.5995 188.227 58.8793 188.877 58.328C189.527 57.7768 190.317 57.4157 191.159 57.2848C192.001 57.1539 192.863 57.2582 193.65 57.5862C194.437 57.9142 195.118 58.4532 195.617 59.1436C196.117 59.834 196.416 60.649 196.482 61.4986C196.548 62.3483 196.377 63.1996 195.989 63.9585C195.602 64.7175 195.012 65.3546 194.285 65.7995C193.558 66.2444 192.722 66.4799 191.87 66.4799L191.861 66.4689Z" fill="#215FCB"/>
</g>
<defs>
<linearGradient id="paint0_linear_689_588" x1="98.3498" y1="213.828" x2="98.3498" y2="44.023" gradientUnits="userSpaceOnUse">
<stop stop-color="#808080" stop-opacity="0.25"/>
<stop offset="0.54" stop-color="#808080" stop-opacity="0.12"/>
<stop offset="1" stop-color="#808080" stop-opacity="0.1"/>
</linearGradient>
<linearGradient id="paint1_linear_689_588" x1="246.594" y1="211.681" x2="246.594" y2="56.5954" gradientUnits="userSpaceOnUse">
<stop stop-color="#808080" stop-opacity="0.25"/>
<stop offset="0.54" stop-color="#808080" stop-opacity="0.12"/>
<stop offset="1" stop-color="#808080" stop-opacity="0.1"/>
</linearGradient>
<clipPath id="clip0_689_588">
<rect width="305" height="216" fill="white"/>
</clipPath>
</defs>
</svg>
